<?xml version="1.0" encoding="UTF-8"?>
<svg id="safetrade_text" xmlns="http://www.w3.org/2000/svg" xmlns:xlink="http://www.w3.org/1999/xlink"
  viewBox="0 0 1092 247">
  <defs>
    <style>
      .cls-1 {
        fill: #fff;
      }

      .cls-2 {
        filter: url(#drop-shadow-2);
      }

      .cls-3 {
        fill: url(#linear-gradient);
        filter: url(#drop-shadow-1);
        opacity: .83;
      }
      #safetrade_logo_full_text{
        fill: hsl(var(--text-foreground));
      }
    </style>
    <linearGradient id="linear-gradient" x1="41.61" y1="192.26" x2="222.63" y2="30.84"
      gradientTransform="translate(-.13 .89)" gradientUnits="userSpaceOnUse">
      <stop offset="0" stop-color="#9a00bd" />
      <stop offset=".4" stop-color="#c3009a" />
      <stop offset=".5" stop-color="#D00091" />
      <stop offset="1" stop-color="#ffad6a" />
    </linearGradient>
    <filter id="drop-shadow-1" filterUnits="userSpaceOnUse">
      <feOffset dx="4" dy="4" />
      <feGaussianBlur result="blur" stdDeviation="5" />
      <feFlood flood-color="#000" flood-opacity=".4" />
      <feComposite in2="blur" operator="in" />
      <feComposite in="SourceGraphic" />
    </filter>
    <filter id="drop-shadow-2" filterUnits="userSpaceOnUse">
      <feOffset dx="5" dy="5" />
      <feGaussianBlur result="blur-2" stdDeviation="7" />
      <feFlood flood-color="#000" flood-opacity=".46" />
      <feComposite in2="blur-2" operator="in" />
      <feComposite in="SourceGraphic" />
    </filter>
  </defs>
  <g>
    <rect class="cls-3" x="7.57" y="10.44" width="225.12" height="225.12" rx="17.16" ry="17.16"
      transform="translate(-.76 .75) rotate(-.36)" />
    <g class="cls-2">
      <path class="cls-1"
        d="m174.24,99.12l-17.79,18.01c-.74.75-1.99.37-2.22-.65-.45-1.97-1.44-3.85-2.99-5.38-2.93-2.9-7.09-3.8-10.79-2.74-.87.25-1.81.06-2.45-.58l-37.34-36.88c-.9-.89-2.07-1.33-3.24-1.32s-2.33.46-3.23,1.36c-1.78,1.8-1.76,4.69.04,6.47l19.83,19.59,18.06,17.84c.53.53.76,1.28.62,2.02-.67,3.48.36,7.21,3.07,9.88,2.21,2.18,5.11,3.24,7.99,3.17.02,0,.03.02.02.04l-19.07,19.32s-.02,0-.03,0l-17.17-16.96c-.95-.93-1.33-2.27-1.13-3.58.5-3.36-.54-6.9-3.14-9.47-2.23-2.2-5.15-3.25-8.05-3.16-1.6.05-3.2.44-4.66,1.18-.32.16-.7.12-.96-.13l-18.26-18.04c-4.16-4.1-4.2-10.81-.09-14.97l32.38-32.79c6.08-6.15,15.99-6.21,22.15-.14l48.48,47.89s0,.02,0,.03Z" />
      <path class="cls-1"
        d="m168.5,161.18l-33.1,33.52c-6.05,6.13-15.93,6.19-22.06.14l-48.53-47.93s0-.02,0-.03l17.61-17.83c.81-.82,2.18-.41,2.46.72.47,1.88,1.45,3.67,2.93,5.13,2.79,2.75,6.68,3.71,10.23,2.88,1.02-.24,2.08.08,2.83.81l37.91,37.45c1.79,1.77,4.72,1.94,6.53.19s1.87-4.75.05-6.55l-38.54-38.07c-.54-.53-.75-1.31-.58-2.05.82-3.59-.17-7.52-2.99-10.3-2.21-2.18-5.12-3.24-8-3.17-.02,0-.03-.02-.02-.04l18.8-19.03s.02,0,.03,0l18.04,17.82c.54.53.76,1.29.62,2.03-.66,3.47.37,7.2,3.07,9.87,2.23,2.2,5.15,3.25,8.04,3.16,1.21-.03,2.42-.27,3.56-.7,1.06-.4,2.26-.17,3.07.63l17.94,17.72c3.78,3.74,3.82,9.83.08,13.62Z" />
      <path class="cls-1"
        d="m104.02,97.63l-44.2,44.75s-.09.04-.13,0l-8.32-8.22c-1.97-1.95-1.99-5.13-.04-7.11l40.74-41.25s.09-.04.13,0l11.83,11.69s.04.09,0,.13Z" />
      <path class="cls-1"
        d="m189.06,118.45l-42.18,42.71s-.01,0-.02,0l-11.95-11.8s0-.01,0-.02l44.31-44.87s.01,0,.02,0l9.79,9.67c1.2,1.18,1.21,3.11.03,4.31Z" />
    </g>
  </g>
  <g id="safetrade_logo_full_text">
    <path
      d="m287.47,193.65c-7.57-2.39-13.48-5.4-17.75-9.02l6.21-10.86c4.27,3.36,9.63,6.11,16.1,8.24,6.47,2.13,13.19,3.2,20.17,3.2,9.31,0,16.2-1.46,20.66-4.36,4.46-2.91,6.69-7.01,6.69-12.32,0-3.75-1.23-6.69-3.69-8.83-2.46-2.13-5.56-3.75-9.31-4.85-3.75-1.1-8.73-2.16-14.94-3.2-8.28-1.55-14.94-3.13-19.98-4.75-5.04-1.62-9.34-4.36-12.9-8.24-3.56-3.88-5.33-9.24-5.33-16.1,0-8.54,3.56-15.52,10.67-20.95,7.11-5.43,17-8.15,29.68-8.15,6.6,0,13.19.87,19.79,2.62s12.03,4.04,16.29,6.89l-6.01,11.06c-8.41-5.82-18.43-8.73-30.07-8.73-8.8,0-15.42,1.55-19.88,4.66-4.46,3.1-6.69,7.18-6.69,12.22,0,3.88,1.26,6.98,3.78,9.31,2.52,2.33,5.66,4.04,9.41,5.14,3.75,1.1,8.92,2.23,15.52,3.39,8.15,1.55,14.68,3.1,19.59,4.66,4.91,1.55,9.12,4.2,12.61,7.95,3.49,3.75,5.24,8.92,5.24,15.52,0,8.92-3.72,16-11.15,21.24-7.44,5.24-17.75,7.86-30.94,7.86-8.28,0-16.2-1.19-23.76-3.59Z" />
    <path
      d="m435.39,103.45c7.11,6.66,10.67,16.52,10.67,29.58v63.24h-13.19v-15.91c-3.1,5.3-7.66,9.44-13.68,12.42-6.01,2.98-13.16,4.46-21.44,4.46-11.38,0-20.44-2.72-27.16-8.15-6.73-5.43-10.09-12.61-10.09-21.53s3.13-15.65,9.41-20.95c6.27-5.3,16.26-7.95,29.97-7.95h32.4v-6.21c0-8.79-2.46-15.49-7.37-20.08-4.92-4.59-12.09-6.89-21.53-6.89-6.47,0-12.68,1.07-18.62,3.2-5.95,2.13-11.06,5.08-15.33,8.83l-6.21-10.28c5.17-4.4,11.38-7.79,18.62-10.18,7.24-2.39,14.87-3.59,22.89-3.59,13.32,0,23.54,3.33,30.65,9.99Zm-15.52,77.6c5.56-3.56,9.7-8.7,12.42-15.42v-16.68h-32.01c-17.46,0-26.19,6.08-26.19,18.24,0,5.95,2.26,10.64,6.79,14.06,4.53,3.43,10.86,5.14,19.01,5.14s14.42-1.78,19.98-5.33Z" />
    <path
      d="m494.07,67.85c-3.04,3.23-4.56,8.02-4.56,14.36v12.03h31.43v11.64h-31.04v90.4h-13.77v-90.4h-18.24v-11.64h18.24v-12.61c0-9.31,2.68-16.68,8.05-22.12,5.37-5.43,12.96-8.15,22.79-8.15,3.88,0,7.63.55,11.25,1.65,3.62,1.1,6.66,2.69,9.12,4.75l-4.66,10.28c-4.01-3.36-9.05-5.04-15.13-5.04s-10.45,1.62-13.48,4.85Z" />
    <path
      d="m616.96,149.52h-85.36c.78,10.61,4.85,19.17,12.22,25.7,7.37,6.53,16.68,9.8,27.93,9.8,6.34,0,12.15-1.13,17.46-3.39,5.3-2.26,9.89-5.59,13.77-9.99l7.76,8.92c-4.53,5.43-10.18,9.57-16.97,12.42-6.79,2.85-14.26,4.27-22.41,4.27-10.47,0-19.76-2.23-27.84-6.69-8.08-4.46-14.39-10.64-18.91-18.53-4.53-7.89-6.79-16.81-6.79-26.77s2.16-18.88,6.5-26.77c4.33-7.89,10.28-14.03,17.85-18.43,7.57-4.4,16.07-6.6,25.51-6.6s17.91,2.2,25.41,6.6c7.5,4.4,13.38,10.51,17.65,18.33,4.27,7.83,6.4,16.78,6.4,26.87l-.19,4.27Zm-74.01-34.82c-6.66,6.27-10.45,14.45-11.35,24.54h72.36c-.91-10.09-4.69-18.27-11.35-24.54-6.66-6.27-14.97-9.41-24.93-9.41s-18.07,3.14-24.73,9.41Z" />
    <path
      d="m689.32,190.06c-2.59,2.33-5.79,4.11-9.6,5.33-3.82,1.23-7.79,1.84-11.93,1.84-9.57,0-16.94-2.58-22.12-7.76-5.17-5.17-7.76-12.48-7.76-21.92v-61.69h-18.24v-11.64h18.24v-22.31h13.77v22.31h31.04v11.64h-31.04v60.91c0,6.08,1.52,10.7,4.56,13.87,3.04,3.17,7.4,4.75,13.09,4.75,2.84,0,5.59-.45,8.24-1.36,2.65-.9,4.95-2.2,6.89-3.88l4.85,9.89Z" />
    <path
      d="m732.29,98.69c6.4-3.49,14.32-5.24,23.76-5.24v13.39l-3.3-.19c-10.74,0-19.14,3.3-25.22,9.89-6.08,6.6-9.12,15.84-9.12,27.74v51.99h-13.77v-102.04h13.19v19.98c3.23-6.85,8.05-12.03,14.45-15.52Z" />
    <path
      d="m837.33,103.45c7.11,6.66,10.67,16.52,10.67,29.58v63.24h-13.19v-15.91c-3.1,5.3-7.66,9.44-13.68,12.42-6.01,2.98-13.16,4.46-21.44,4.46-11.38,0-20.44-2.72-27.16-8.15-6.73-5.43-10.09-12.61-10.09-21.53s3.13-15.65,9.41-20.95c6.27-5.3,16.26-7.95,29.97-7.95h32.4v-6.21c0-8.79-2.46-15.49-7.37-20.08-4.92-4.59-12.09-6.89-21.53-6.89-6.47,0-12.68,1.07-18.62,3.2-5.95,2.13-11.06,5.08-15.33,8.83l-6.21-10.28c5.17-4.4,11.38-7.79,18.62-10.18,7.24-2.39,14.87-3.59,22.89-3.59,13.32,0,23.54,3.33,30.65,9.99Zm-15.52,77.6c5.56-3.56,9.7-8.7,12.42-15.42v-16.68h-32.01c-17.46,0-26.19,6.08-26.19,18.24,0,5.95,2.26,10.64,6.79,14.06,4.53,3.43,10.86,5.14,19.01,5.14s14.42-1.78,19.98-5.33Z" />
    <path
      d="m969.25,52.33v143.94h-13.19v-20.17c-4.14,6.86-9.6,12.09-16.39,15.71-6.79,3.62-14.45,5.43-22.99,5.43-9.57,0-18.23-2.2-25.99-6.6-7.76-4.39-13.84-10.54-18.24-18.43-4.4-7.89-6.6-16.88-6.6-26.97s2.2-19.07,6.6-26.96c4.39-7.89,10.48-14,18.24-18.33,7.76-4.33,16.42-6.5,25.99-6.5,8.28,0,15.74,1.72,22.41,5.14,6.66,3.43,12.12,8.44,16.39,15.03v-61.3h13.77Zm-32.11,127.74c5.75-3.3,10.28-7.98,13.58-14.06,3.3-6.08,4.95-13,4.95-20.76s-1.65-14.68-4.95-20.76c-3.3-6.08-7.83-10.77-13.58-14.06-5.76-3.3-12.19-4.95-19.3-4.95s-13.74,1.65-19.5,4.95c-5.76,3.3-10.28,7.99-13.58,14.06-3.3,6.08-4.95,13-4.95,20.76s1.65,14.68,4.95,20.76c3.3,6.08,7.82,10.77,13.58,14.06,5.75,3.3,12.25,4.95,19.5,4.95s13.55-1.65,19.3-4.95Z" />
    <path
      d="m1086.81,149.52h-85.36c.78,10.61,4.85,19.17,12.22,25.7,7.37,6.53,16.68,9.8,27.93,9.8,6.33,0,12.15-1.13,17.46-3.39,5.3-2.26,9.89-5.59,13.77-9.99l7.76,8.92c-4.53,5.43-10.18,9.57-16.97,12.42-6.79,2.85-14.26,4.27-22.41,4.27-10.47,0-19.76-2.23-27.84-6.69-8.08-4.46-14.39-10.64-18.92-18.53-4.53-7.89-6.79-16.81-6.79-26.77s2.16-18.88,6.5-26.77c4.33-7.89,10.28-14.03,17.85-18.43,7.57-4.4,16.07-6.6,25.51-6.6s17.91,2.2,25.41,6.6c7.5,4.4,13.39,10.51,17.65,18.33,4.27,7.83,6.4,16.78,6.4,26.87l-.19,4.27Zm-74.01-34.82c-6.66,6.27-10.45,14.45-11.35,24.54h72.36c-.91-10.09-4.69-18.27-11.35-24.54-6.66-6.27-14.97-9.41-24.93-9.41s-18.07,3.14-24.73,9.41Z" />
  </g>
</svg>