<svg width="204" height="195" viewBox="0 0 204 195" fill="none" xmlns="http://www.w3.org/2000/svg">
    <style>
        <![CDATA[
        @keyframes dollar_floating {

            0%,
            50%,
            100% {
                transform: translatey(0px) rotate(0);
            }

            25% {
                transform: translatey(-5px) rotate(-5deg);
            }

            75% {
                transform: translatey(5px) rotate(5deg);
            }
        }

        #persons_agreeing_dollar {
            transform-origin: center;
            animation: dollar_floating;
            animation-direction: linear;
            animation-duration: 2s;
            animation-iteration-count: infinite;
        }
        ]]>
    </style>

    <g id="persons_agreeing">
        <g id="Group">
            <g id="persons_agreeing_2">
                <path id="Vector"
                    d="M46.7999 77.5999C60.4413 77.5999 71.4999 66.5414 71.4999 52.9C71.4999 39.2585 60.4413 28.2 46.7999 28.2C33.1584 28.2 22.0999 39.2585 22.0999 52.9C22.0999 66.5414 33.1584 77.5999 46.7999 77.5999Z"
                    fill="#D00091" />
                <path id="Vector_2"
                    d="M1.8999 164.4H55.3999V158.1C55.3999 158.1 31.9999 138.4 37.3999 130C42.7999 121.6 47.1999 138.3 47.1999 138.3C47.1999 138.3 61.6999 162.7 89.5999 164.4C117.4 166.1 101.6 146 101.6 146C101.6 146 97.5999 142 87.8999 143.2C78.1999 144.4 63.9999 124.2 63.9999 124.2C63.9999 124.2 59.9999 116.9 59.7999 107.3C59.5999 97.7 52.1999 90.6 52.1999 90.6C52.1999 90.6 43.6999 81.1 31.7999 82.1C31.7999 82.1 11.5999 84 7.9999 104.2C4.3999 124.4 1.8999 164.4 1.8999 164.4Z"
                    fill="#D00091" />
            </g>
            <g id="persons_agreeing_person_1">
                <path id="Vector_3"
                    d="M156.3 77.5999C169.941 77.5999 181 66.5414 181 52.9C181 39.2585 169.941 28.2 156.3 28.2C142.658 28.2 131.6 39.2585 131.6 52.9C131.6 66.5414 142.658 77.5999 156.3 77.5999Z"
                    fill="#F9CEAF" />
                <path id="Vector_4"
                    d="M203 164.4H149.5V158.1C149.5 158.1 172.9 138.4 167.5 130C162.1 121.6 157.7 138.3 157.7 138.3C157.7 138.3 137.3 160.6 109.7 164.5C106.5 165 120.4 143.9 105.2 144.7C105.2 144.7 107.2 142 117 143.2C126.8 144.4 140.9 124.1 140.9 124.1C140.9 124.1 144.9 116.8 145.1 107.2C145.3 97.5999 152.7 90.4999 152.7 90.4999C152.7 90.4999 161.2 80.9999 173.1 81.9999C173.1 81.9999 193.3 83.8999 196.9 104.1C200.4 124.3 203 164.4 203 164.4Z"
                    fill="#F9CEAF" />
            </g>
            <g id="persons_agreeing_dollar">
                <path id="Vector_5"
                    d="M103 127.7C121.17 127.7 135.9 112.97 135.9 94.7999C135.9 76.6297 121.17 61.8999 103 61.8999C84.8297 61.8999 70.0999 76.6297 70.0999 94.7999C70.0999 112.97 84.8297 127.7 103 127.7Z"
                    fill="#8E08AF" />
                <path id="$"
                    d="M101.08 118.731V71.4218H104.111V118.731H101.08ZM111.281 85.6145C111.059 83.7419 110.16 82.2881 108.583 81.2532C107.006 80.2184 105.071 79.7009 102.78 79.7009C101.104 79.7009 99.6383 79.9719 98.3817 80.514C97.1373 81.0561 96.1641 81.8015 95.4618 82.7501C94.7719 83.6988 94.4269 84.7768 94.4269 85.9841C94.4269 86.9944 94.6672 87.863 95.1477 88.5898C95.6405 89.3044 96.2688 89.9019 97.0326 90.3824C97.7965 90.8506 98.5973 91.2387 99.435 91.5467C100.273 91.8423 101.043 92.0826 101.745 92.2674L105.589 93.3023C106.575 93.561 107.671 93.9183 108.878 94.3741C110.098 94.83 111.262 95.4521 112.371 96.2406C113.492 97.0168 114.416 98.0147 115.143 99.2344C115.87 100.454 116.233 101.951 116.233 103.725C116.233 105.77 115.698 107.618 114.626 109.269C113.566 110.92 112.014 112.232 109.969 113.205C107.936 114.179 105.466 114.665 102.558 114.665C99.8478 114.665 97.5008 114.228 95.5173 113.353C93.546 112.478 91.9937 111.259 90.8603 109.694C89.7391 108.129 89.1047 106.312 88.9568 104.242H93.6877C93.8109 105.672 94.2914 106.854 95.1292 107.791C95.9793 108.715 97.0511 109.405 98.3447 109.86C99.6506 110.304 101.055 110.526 102.558 110.526C104.308 110.526 105.878 110.242 107.271 109.676C108.663 109.097 109.765 108.296 110.579 107.273C111.392 106.238 111.798 105.031 111.798 103.651C111.798 102.394 111.447 101.372 110.745 100.583C110.043 99.795 109.119 99.1543 107.973 98.6615C106.827 98.1687 105.589 97.7375 104.258 97.3679L99.6014 96.0373C96.6445 95.1872 94.3037 93.9737 92.5789 92.3967C90.8541 90.8198 89.9917 88.7562 89.9917 86.2059C89.9917 84.0869 90.5646 82.2388 91.7104 80.6619C92.8684 79.0726 94.4208 77.8406 96.3673 76.9659C98.3262 76.0788 100.513 75.6353 102.928 75.6353C105.367 75.6353 107.535 76.0726 109.433 76.9474C111.33 77.8098 112.833 78.9925 113.942 80.4956C115.063 81.9986 115.654 83.7049 115.716 85.6145H111.281Z"
                    fill="white" />
            </g>
        </g>
    </g>
</svg>