<svg id="eM673RcCS5b1" xmlns="http://www.w3.org/2000/svg" xmlns:xlink="http://www.w3.org/1999/xlink"
    viewBox="0 0 162 162" shape-rendering="geometricPrecision" text-rendering="geometricPrecision">
    <style>
        <![CDATA[
        #eM673RcCS5b74_to {
            animation: eM673RcCS5b74_to__to 3000ms linear infinite normal forwards
        }

        @keyframes eM673RcCS5b74_to__to {
            0% {
                transform: translate(35.305961px, 27.738004px)
            }

            33.333333% {
                transform: translate(33.97278px, 25.333192px)
            }

            66.666667% {
                transform: translate(36.288235px, 28.464797px)
            }

            100% {
                transform: translate(35.305961px, 27.738004px)
            }
        }

        #eM673RcCS5b74_tr {
            animation: eM673RcCS5b74_tr__tr 3000ms linear infinite normal forwards
        }

        @keyframes eM673RcCS5b74_tr__tr {
            0% {
                transform: rotate(0deg)
            }

            33.333333% {
                transform: rotate(-2.903645deg)
            }

            66.666667% {
                transform: rotate(2.197361deg)
            }

            100% {
                transform: rotate(0deg)
            }
        }

        #eM673RcCS5b85_to {
            animation: eM673RcCS5b85_to__to 3000ms linear infinite normal forwards
        }

        @keyframes eM673RcCS5b85_to__to {
            0% {
                transform: translate(103.479229px, 87.563843px)
            }

            33.333333% {
                transform: translate(105.485048px, 88.373507px)
            }

            66.666667% {
                transform: translate(100.250389px, 87.218995px)
            }

            100% {
                transform: translate(103.479229px, 87.563843px)
            }
        }

        #eM673RcCS5b85_tr {
            animation: eM673RcCS5b85_tr__tr 3000ms linear infinite normal forwards
        }

        @keyframes eM673RcCS5b85_tr__tr {
            0% {
                transform: rotate(0deg)
            }

            33.333333% {
                transform: rotate(3.556117deg)
            }

            66.666667% {
                transform: rotate(-7.832748deg)
            }

            100% {
                transform: rotate(0deg)
            }
        }

        #eM673RcCS5b96_tr {
            animation: eM673RcCS5b96_tr__tr 3000ms linear infinite normal forwards
        }

        @keyframes eM673RcCS5b96_tr__tr {
            0% {
                transform: translate(50.886299px, 68.463474px) rotate(0deg)
            }

            33.333333% {
                transform: translate(50.886299px, 68.463474px) rotate(3.25808deg)
            }

            66.666667% {
                transform: translate(50.886299px, 68.463474px) rotate(-1.919616deg)
            }

            100% {
                transform: translate(50.886299px, 68.463474px) rotate(0deg)
            }
        }
        ]]>
    </style>
    <path
        d="M81,161.52c44.47,0,80.52-36.05,80.52-80.52s-36.05-80.52002-80.52-80.52002-80.52002,36.05002-80.52002,80.52002s36.05002,80.52,80.52002,80.52Z"
        fill="#f2e6dc" />
    <path d="M150.097,10.6176h-67.5307v127.4064h67.5307v-127.4064Z" fill="#e6d0be" />
    <path
        d="M147.15,145.636h-62.1021c-4.2504,0-7.7176-3.458-7.7176-7.718v-128.40926c0-4.2504,3.4584-7.7176,7.7176-7.7176h62.1021c4.25,0,7.717,3.4584,7.717,7.7176v128.40926c-.009,4.26-3.467,7.718-7.717,7.718ZM85.0479,1.97594c-4.1536,0-7.5416,3.3792-7.5416,7.5416v128.40946c0,4.154,3.3792,7.542,7.5416,7.542h62.1021c4.153,0,7.541-3.379,7.541-7.542v-128.41826c0-4.1536-3.379-7.5416-7.541-7.5416h-62.1021v.0088Z"
        fill="#363e44" />
    <path
        d="M86.896,35.8296h-.1232c-2.3232,0-4.2064-1.8832-4.2064-4.2064v-21.0056h8.5448v20.9968c-.0088,2.3232-1.892,4.2152-4.2152,4.2152Z"
        fill="#fff" />
    <path
        d="M95.3264,35.8296h-.1232c-2.3232,0-4.2064-1.8832-4.2064-4.2064v-21.0056h8.5448v20.9968c-.0088,2.3232-1.892,4.2152-4.2152,4.2152Z"
        fill="#D00091" />
    <path
        d="M103.748,35.8296h-.123c-2.323,0-4.2067-1.8832-4.2067-4.2064v-21.0056h8.5447v20.9968c0,2.3232-1.883,4.2152-4.215,4.2152Z"
        fill="#fff" />
    <path
        d="M112.178,35.8296h-.123c-2.323,0-4.206-1.8832-4.206-4.2064v-21.0056h8.545v20.9968c-.009,2.3232-1.892,4.2152-4.216,4.2152Z"
        fill="#D00091" />
    <path
        d="M120.609,35.8296h-.123c-2.324,0-4.207-1.8832-4.207-4.2064v-21.0056h8.545v20.9968c-.009,2.3232-1.892,4.2152-4.215,4.2152Z"
        fill="#fff" />
    <path
        d="M129.03,35.8296h-.123c-2.323,0-4.206-1.8832-4.206-4.2064v-21.0056h8.545v20.9968c0,2.3232-1.884,4.2152-4.216,4.2152Z"
        fill="#D00091" />
    <path
        d="M137.461,35.8296h-.123c-2.324,0-4.207-1.8832-4.207-4.2064v-21.0056h8.545v20.9968c-.009,2.3232-1.892,4.2152-4.215,4.2152Z"
        fill="#fff" />
    <path
        d="M145.891,35.8296h-.123c-2.323,0-4.206-1.8832-4.206-4.2064v-21.0056h8.544v20.9968c-.008,2.3232-1.892,4.2152-4.215,4.2152Z"
        fill="#D00091" />
    <path
        d="M150.071,10.7055h-67.531c-.0528,0-.088-.0352-.088-.088s.0352-.088.088-.088h67.531c.053,0,.088.0352.088.088s-.035.088-.088.088Z"
        fill="#D00091" />
    <path d="M126.549,79.6184l.061-30.6328L90.1432,48.88l-.0704,36.256l4.7256-5.5176h31.7506Z" fill="#fff" />
    <path
        d="M87.8728,81.7831c-.0088,0-.0176,0-.0264-.0088-.0352-.0088-.0616-.044-.0616-.0792l.0616-35.024c0-.0264.0088-.044.0264-.0616s.0352-.0264.0616-.0264l36.4676.1056c.052,0,.088.044.088.088l-.062,29.4008c0,.0528-.035.088-.088.088h-31.7064l-4.6904,5.4912c-.0264.0176-.0528.0264-.0704.0264Zm.1496-35.024l-.0616,34.6984l4.5672-5.3416c.0176-.0176.044-.0264.0704-.0264h31.6626l.061-29.2248-36.2996-.1056Z"
        fill="#e6d0be" />
    <path d="M118.253,52.0291L95.8925,51.962l-.0221,7.3656l22.3606.0671.022-7.3656Z" fill="#f2e6dc" />
    <path
        d="M118.224,62.5112l-22.3611-.0704c-.0528,0-.088-.044-.088-.088s.0352-.088.088-.088l22.3611.0704c.053,0,.088.044.088.088s-.044.088-.088.088Z"
        fill="#e6d0be" />
    <path
        d="M118.215,64.1127l-22.3606-.0704c-.0528,0-.088-.044-.088-.088s.0352-.088.088-.088l22.3606.0704c.053,0,.088.044.088.088s-.035.088-.088.088Z"
        fill="#e6d0be" />
    <path
        d="M118.215,65.7232l-22.3606-.0704c-.0528,0-.088-.044-.088-.088s.0352-.088.088-.088l22.3606.0704c.053,0,.088.044.088.088s-.044.088-.088.088Z"
        fill="#e6d0be" />
    <path
        d="M114.855,48.9736c.83-4.3097-1.991-8.4762-6.3-9.3061-4.31-.8299-8.476,1.9911-9.3062,6.3007-.8299,4.3097,1.9912,8.4762,6.3002,9.3061c4.31.8299,8.477-1.9911,9.306-6.3007Z"
        fill="#fff" />
    <path
        d="M107.048,55.5064c-4.426,0-8.0343-3.5992-8.0343-8.0344c0-4.4264,3.5993-8.0344,8.0343-8.0344s8.034,3.5992,8.034,8.0344c0,4.4264-3.599,8.0344-8.034,8.0344Zm0-15.884c-4.33,0-7.8583,3.52-7.8583,7.8584c0,4.3296,3.5203,7.8584,7.8583,7.8584s7.858-3.52,7.858-7.8584-3.52-7.8584-7.858-7.8584Z"
        fill="#e6d0be" />
    <path
        d="M113.34,51.2296c-1.399-.9504-3.678-1.5664-6.266-1.5664-2.604,0-4.901.6248-6.292,1.5928c1.285,2.1208,3.608,3.5464,6.275,3.5464c2.666-.0088,4.998-1.4344,6.283-3.5728Z"
        fill="#D00091" />
    <path
        d="M110.049,47.4896c.884,0,1.601-.7171,1.601-1.6016s-.717-1.6016-1.601-1.6016c-.885,0-1.602.717-1.602,1.6016s.717,1.6016,1.602,1.6016Z"
        fill="#363e44" />
    <path
        d="M112.073,47.6833c0,.88-.713,1.6016-1.602,1.6016-.88,0-1.601-.7128-1.601-1.6016c0-.88.712-1.6016,1.601-1.6016s1.602.7216,1.602,1.6016Z"
        fill="#363e44" />
    <path
        d="M106.458,39.0064c.836-.5544,1.699-.484,2.262-.2552c1.575.6512,2.508,2.6664,2.173,5.1656-2.481.044-4.972.0968-7.453.1408-.352-1.584-.502-3.2208.317-4.2592c1.056-1.3288,2.534-.7832,2.701-.792Z"
        fill="#363e44" />
    <path
        d="M106.766,51.7928c1.039.0704,1.945-.7216,2.016-1.76l.334-5.06-3.775-.2464-.335,5.06c-.061,1.0296.722,1.936,1.76,2.0064Z"
        fill="#9e6c5a" />
    <path
        d="M103.854,43.7408c.044,2.0504,1.496,3.6872,3.238,3.652c1.751-.0352,3.133-1.7336,3.089-3.784s-1.496-3.5288-3.239-3.4936c-1.751.044-3.132,1.5752-3.088,3.6256Z"
        fill="#9e6c5a" />
    <path
        d="M109.635,42.9752c-.378.5984-.273,1.3552.238,1.672.51.3256,1.232.0968,1.619-.5016.378-.5984.273-1.3552-.238-1.672-.51-.3168-1.232-.0968-1.619.5016Z"
        fill="#9e6c5a" />
    <path
        d="M104.399,43.0896c.405.5808.335,1.3376-.167,1.6808s-1.232.1496-1.637-.4312-.334-1.3376.167-1.6808c.502-.352,1.232-.1584,1.637.4312Z"
        fill="#9e6c5a" />
    <path
        d="M107.03,47.4808c-.66,0-1.284-.2288-1.83-.66-.035-.0264-.044-.088-.018-.1232.027-.0352.088-.044.124-.0176.528.4224,1.144.6336,1.777.616.651-.0176,1.267-.264,1.778-.7216.035-.0352.088-.0264.123.0088s.026.088-.009.1232c-.545.484-1.205.748-1.892.7656-.009.0088-.026.0088-.053.0088Z"
        fill="#363e44" />
    <path
        d="M106.881,44.9464c-.018,0-.035-.0088-.053-.0176-.132-.088-.202-.1848-.211-.2904-.009-.0968.035-.1672.07-.2288.035-.0528.062-.1056.071-.176.008-.0616,0-.132-.036-.2024-.017-.044,0-.0968.044-.1144s.097,0,.115.044c.044.0968.061.2024.044.2992-.018.1056-.062.1848-.097.2376s-.053.088-.044.1232c.009.0616.079.1232.132.1584.044.0264.053.0792.026.1232-.008.0264-.035.044-.061.044Z"
        fill="#363e44" />
    <path
        d="M107.356,45.624c-.053,0-.097-.044-.097-.088s.044-.088.088-.088c0,0,0,0,.009,0c.106,0,.29-.0176.466-.1496.115-.088.185-.1936.229-.2728.018-.044.071-.0616.115-.044s.061.0704.044.1144c-.062.132-.159.2464-.273.3344-.22.176-.458.1936-.581.1936Z"
        fill="#363e44" />
    <path
        d="M112.302,49.3024c0,.7568-.616,1.3728-1.373,1.3728s-1.373-.616-1.373-1.3728.616-1.3728,1.373-1.3728c.757.0088,1.373.616,1.373,1.3728Z"
        fill="#363e44" />
    <path
        d="M112.724,51.0975c0,.7568-.616,1.3728-1.373,1.3728s-1.373-.616-1.373-1.3728.616-1.3728,1.373-1.3728s1.373.616,1.373,1.3728Z"
        fill="#363e44" />
    <path
        d="M112.68,52.6816c0,.616-.502,1.1176-1.118,1.1176s-1.117-.5016-1.117-1.1176.501-1.1176,1.117-1.1176c.616-.0088,1.118.4928,1.118,1.1176Z"
        fill="#363e44" />
    <path d="M111.615,52.4703l-2.13,3.6872h4.26l-2.13-3.6872Z" fill="#363e44" />
    <path
        d="M109.283,43.0984c-.009.0176-.026.0352-.044.0352-.018.0264-.035.0704-.044.0968-.026.0528-.106.0088-.079-.044.017-.0352-.097.0264-.15.0528-.167.0616-.334.1232-.501.1672-.08.0264-.159.044-.238.0704-.062.0176-.273.0792-.29.0704-.212.1936-.335.3872-.335.3872s.308.1408.704.1584c0-.0088,0-.0088,0-.0176.009-.0528.933-.2728.951-.2288.387-.2464.616-.5984.616-.5984s-.247-.1144-.59-.1496Z"
        fill="#fff" />
    <path
        d="M108.605,43.1512c-.272.0792-.501.2464-.668.396.017.176.105.3344.246.4576.035.0352.079.0616.114.0792.176.0088.379,0,.572-.0616.141-.044.273-.1056.388-.176.149-.2288.149-.5192.017-.748-.202-.0264-.431-.0176-.669.0528Z"
        fill="#363e44" />
    <path
        d="M104.769,43.1598c.008.0176.026.0352.044.0352.017.0264.035.0704.044.0968.026.0528.105.0088.079-.044-.018-.0352.097.0264.149.0528.168.0616.335.1232.502.1672.079.0264.158.044.238.0704.061.0176.272.0792.29.0704.211.1936.334.3872.334.3872s-.308.1408-.704.1584c0-.0088,0-.0088,0-.0176-.008-.0528-.932-.2728-.95-.2288-.387-.2464-.616-.5984-.616-.5984s.246-.1144.59-.1496Z"
        fill="#fff" />
    <path
        d="M105.446,43.2128c.273.0792.502.2464.669.396-.018.176-.106.3344-.246.4576-.036.0352-.08.0616-.115.0792-.176.0088-.378,0-.572-.0616-.141-.044-.273-.1056-.387-.176-.15-.2288-.15-.5192-.018-.748.203-.0176.44-.0176.669.0528Z"
        fill="#363e44" />
    <path
        d="M95.8632,69.9824l1.4256.1848-1.012,1.012.2728,1.408-1.276-.6424-1.2584.6864.22-1.4168-1.0472-.9768l1.4168-.2288.6072-1.2936.6512,1.2672Z"
        fill="#8e08af" />
    <path
        d="M101.777,69.9824l1.417.1848-1.004,1.012.264,1.408-1.276-.6424-1.2492.6864.2202-1.4168-1.0474-.9768l1.4084-.2288.616-1.2936.651,1.2672Z"
        fill="#8e08af" />
    <path
        d="M107.69,69.9824l1.417.1848-1.003,1.012.264,1.408-1.276-.6424-1.25.6864.212-1.4168-1.039-.9768l1.408-.2288.607-1.2936.66,1.2672Z"
        fill="#8e08af" />
    <path
        d="M113.595,69.9824l1.426.1848-1.012,1.012.273,1.408-1.276-.6424-1.259.6864.22-1.4168-1.047-.9768l1.417-.2288.607-1.2936.651,1.2672Z"
        fill="#8e08af" />
    <path
        d="M119.509,69.9824l1.417.1848-1.004,1.012.264,1.408-1.276-.6424-1.249.6864.211-1.4168-1.038-.9768l1.408-.2288.616-1.2936.651,1.2672Z"
        fill="#8e08af" />
    <path d="M143.093,96.2856l.07,31.9884-38.605.114-.071-37.9456l4.999,5.8432h33.607Z" fill="#fff" />
    <path
        d="M102.217,131.239c-.027,0-.044-.009-.062-.026-.017-.018-.026-.035-.026-.062l-.071-38.3678c0-.0352.027-.0704.062-.0792s.07,0,.097.0264l4.972,5.808h33.563c.053,0,.088.0352.088.088l.07,32.4106c0,.053-.035.088-.088.088l-38.605.114Zm.017-38.2182l.071,38.0422l38.429-.114-.07-32.2346h-33.519c-.027,0-.053-.0088-.071-.0264l-4.84-5.6672Z"
        fill="#e6d0be" />
    <path d="M135.194,99.7963l-22.766-.0683-.023,7.506l22.766.069.023-7.5067Z" fill="#f2e6dc" />
    <path
        d="M135.164,110.471l-22.766-.07c-.052,0-.088-.044-.088-.088s.036-.088.088-.088l22.766.07c.053,0,.088.044.088.088s-.044.088-.088.088Z"
        fill="#e6d0be" />
    <path
        d="M135.155,112.099l-22.765-.07c-.053,0-.088-.044-.088-.088s.035-.088.088-.088l22.765.07c.053,0,.088.044.088.088s-.035.088-.088.088Z"
        fill="#e6d0be" />
    <path
        d="M135.155,113.736l-22.765-.07c-.053,0-.088-.044-.088-.088s.035-.088.088-.088l22.765.07c.053,0,.088.044.088.088s-.044.088-.088.088Z"
        fill="#e6d0be" />
    <path
        d="M129.506,100.88c3.158-3.1583,3.158-8.2787,0-11.437-3.158-3.1582-8.279-3.1582-11.437,0-3.158,3.1583-3.158,8.2787,0,11.437c3.158,3.158,8.279,3.158,11.437,0Z"
        fill="#D00091" />
    <path
        d="M130.192,98.9784c-1.426-.968-3.749-1.6016-6.38-1.6016-2.649,0-4.99.6424-6.406,1.6192c1.302,2.165,3.678,3.608,6.388,3.608c2.711.009,5.096-1.452,6.398-3.6256Z"
        fill="#fff" />
    <path
        d="M123.926,100.272c-1.32.088-2.464-.9064-2.543-2.2264l-.317-4.8312l4.779-.3168.316,4.8312c.08,1.3112-.915,2.4552-2.235,2.5432Z"
        fill="#e2a18d" />
    <path
        d="M126.91,91.912c-.044,2.1384-1.549,3.8368-3.371,3.7928-1.813-.0352-3.256-1.7952-3.212-3.9336s1.549-3.8368,3.371-3.7928c1.821.0352,3.256,1.7952,3.212,3.9336Z"
        fill="#e2a18d" />
    <path
        d="M120.899,91.1199c.396.6248.291,1.408-.246,1.7424-.528.3344-1.285.1056-1.681-.5192s-.29-1.408.246-1.7424c.528-.3432,1.285-.1056,1.681.5192Z"
        fill="#e2a18d" />
    <path
        d="M126.337,91.2344c-.422.6072-.343,1.3904.168,1.7512.519.3608,1.276.1584,1.698-.4488s.343-1.3904-.167-1.7512c-.511-.3608-1.276-.1584-1.699.4488Z"
        fill="#e2a18d" />
    <path
        d="M123.601,95.7928c-.018,0-.044,0-.062,0-.906-.0176-1.742-.4488-2.367-1.2144-.027-.0352-.027-.0968.009-.1232.035-.0264.096-.0264.123.0088.589.7216,1.381,1.1264,2.235,1.144s1.663-.3608,2.279-1.056c.036-.0352.088-.044.123-.0088.036.0352.045.088.009.1232-.633.7304-1.469,1.1264-2.349,1.1264Z"
        fill="#363e44" />
    <path
        d="M120.477,90.7416c.545-.88,1.399-1.9008,2.578-2.0592c1.54-.2024,2.411,1.2408,3.995,1.1088.775-.0616,1.831-.5104,3.01-2.244-.37.0264-.739.0616-1.118.088.379-.5016.766-1.012,1.144-1.5136-.581.2376-1.461.5192-2.552.5984-2.341.176-3.502-.2552-4.857.0792-.88.22-2.35,1.188-2.2,3.9424Z"
        fill="#d87355" />
    <path
        d="M125.774,89.404c.229.2024.511.4928.748.8888.123.2024.211.396.282.572.053-.2288.123-.6336.026-1.1176-.07-.3872-.22-.6776-.334-.8712-.238.1848-.484.352-.722.528Z"
        fill="#d87355" />
    <path
        d="M123.768,93.1528c-.027,0-.053-.0176-.071-.0352-.026-.044-.017-.0968.027-.1232.061-.044.132-.0968.141-.1672c0-.0352-.018-.0704-.053-.132s-.088-.1408-.097-.2464c-.018-.0968,0-.2024.044-.308.018-.044.07-.0616.114-.044s.062.0704.044.1144c-.035.0704-.044.1496-.035.2112.009.0704.044.1232.079.1848.044.0616.088.1408.08.2376-.009.1056-.08.2112-.22.2992-.027.0088-.044.0088-.053.0088Z"
        fill="#363e44" />
    <path
        d="M123.266,93.8656c-.132,0-.369-.0264-.598-.1936-.123-.088-.22-.2112-.291-.3432-.017-.044,0-.0968.044-.1144s.097,0,.115.044c.053.1144.141.2112.237.2816.185.1408.388.1584.493.1584.044,0,.088.0352.088.088.009.044-.035.0792-.088.0792Z"
        fill="#363e44" />
    <path
        d="M126.082,91.3663c-.017.0176-.026.0352-.044.0352-.026.0264-.035.0616-.053.088-.035.044-.096-.0088-.07-.0528.018-.0352-.106.0176-.158.0352-.168.044-.344.0792-.52.1144-.079.0176-.158.0264-.246.044-.062.0088-.282.0528-.299.0352-.238.1672-.379.3432-.379.3432s.291.1672.687.2376c0-.0088,0-.0088.009-.0176.017-.0528.95-.1584.968-.1144.413-.2024.677-.5192.677-.5192s-.237-.1496-.572-.2288Z"
        fill="#fff" />
    <path
        d="M125.405,91.3488c-.282.0528-.528.1848-.713.3168c0,.176.061.3432.193.484.036.0352.071.0704.106.0968.176.0352.378.044.581.0088.149-.0264.281-.0792.405-.132.176-.2112.211-.5016.096-.7392-.193-.0616-.431-.0792-.668-.0352Z"
        fill="#363e44" />
    <path
        d="M121.612,90.9176c.009.0176.018.044.035.044.018.0264.027.0704.035.0968.018.0528.097.0176.08-.0352-.018-.0352.096.044.14.0704.159.0792.317.1584.476.2288.079.0352.149.0616.228.0968.062.0264.264.1144.282.1056.194.22.29.4136.29.4136s-.325.0968-.721.0792c0-.0088,0-.0088,0-.0176c0-.0528-.889-.3784-.915-.3344-.361-.2904-.537-.66-.537-.66s.264-.0968.607-.088Z"
        fill="#fff" />
    <path
        d="M122.272,91.0408c.264.1144.475.2992.616.4752-.044.1672-.141.3256-.299.4312-.044.0264-.079.0528-.123.0704-.176-.0088-.379-.044-.564-.1232-.14-.0616-.255-.1408-.36-.22-.124-.2464-.088-.5368.07-.748.211-.0088.44.0176.66.1144Z"
        fill="#363e44" />
    <path
        d="M111.184,119.518l1.443.184-1.021,1.03.273,1.426-1.302-.652-1.267.696.22-1.426-1.056-.994l1.425-.238.625-1.311.66,1.285Z"
        fill="#8e08af" />
    <path
        d="M117.186,119.518l1.434.184-1.021,1.03.273,1.426-1.294-.652-1.276.696.22-1.426-1.056-.994l1.435-.238.616-1.311.669,1.285Z"
        fill="#8e08af" />
    <path
        d="M123.178,119.518l1.444.184-1.021,1.03.273,1.426-1.303-.652-1.267.696.22-1.426-1.056-.994l1.426-.238.616-1.311.668,1.285Z"
        fill="#8e08af" />
    <path
        d="M127.297,122.29c-.018,0-.035-.009-.053-.018-.026-.018-.044-.053-.035-.088l.211-1.39-1.021-.96c-.026-.026-.035-.061-.026-.088.009-.035.035-.052.07-.061l1.382-.229.598-1.267c.018-.027.044-.053.079-.053.036,0,.062.018.08.044l.642,1.25l1.39.176c.036,0,.062.026.071.061s0,.071-.018.088l-.985.995.264,1.381c.008.035-.009.071-.036.088-.026.018-.061.027-.096.009l-1.259-.634-1.232.678c.009.018-.009.018-.026.018Zm-.643-2.456l.924.872c.018.017.036.052.027.079l-.194,1.258l1.118-.616c.026-.017.053-.017.079,0l1.135.572-.237-1.249c-.009-.027,0-.062.026-.08l.898-.906-1.259-.158c-.026,0-.053-.018-.07-.044l-.581-1.127-.546,1.153c-.008.026-.035.044-.061.053l-1.259.193Z"
        fill="#8e08af" />
    <path
        d="M133.298,122.29c-.017,0-.035-.009-.052-.018-.027-.018-.044-.053-.036-.088l.212-1.39-1.021-.96c-.027-.026-.035-.061-.027-.088.009-.035.036-.052.071-.061l1.381-.229.599-1.267c.017-.027.044-.053.079-.053s.062.018.079.044l.643,1.25l1.39.176c.035,0,.062.026.07.061.009.035,0,.071-.017.088l-.986.995.264,1.381c.009.035-.009.071-.035.088-.026.018-.062.027-.097.009l-1.258-.634-1.232.678c0,.018-.018.018-.027.018Zm-.651-2.456l.924.872c.018.017.035.052.027.079l-.194,1.258l1.118-.616c.026-.017.052-.017.079,0l1.135.572-.238-1.249c-.008-.027,0-.062.027-.08l.897-.906-1.258-.158c-.026,0-.053-.018-.07-.044l-.581-1.127-.546,1.153c-.009.026-.035.044-.061.053l-1.259.193Z"
        fill="#8e08af" />
    <path
        d="M20.2888,48.5544c-.0264,0-.044-.0088-.0616-.0264-.0352-.0352-.0352-.088,0-.1232l2.8864-2.816c.0352-.0352.088-.0352.1232,0s.0352.088,0,.1232l-2.8864,2.816c-.0176.0176-.044.0264-.0616.0264Z"
        fill="#363e44" />
    <path
        d="M21.2656,49.5576c-.0264,0-.044-.0088-.0616-.0264-.0352-.0352-.0352-.088,0-.1232l2.8864-2.816c.0352-.0352.088-.0352.1232,0s.0352.088,0,.1232l-2.8864,2.816c-.0176.0176-.0352.0264-.0616.0264Z"
        fill="#363e44" />
    <g id="eM673RcCS5b74_to" transform="translate(35.305961,27.738004)">
        <g id="eM673RcCS5b74_tr" transform="rotate(0)">
            <g transform="translate(-39.213201,-30.642005)">
                <path
                    d="M15.3344,56.7032c-.5104,0-.9856-.2024-1.3464-.5632l-.2904-.2904c-.3608-.3608-.5544-.836-.5544-1.3464s.2024-.9856.5632-1.3464l8.6504-8.6152c.3432-.3432.8976-.3432,1.232,0l1.7424,1.7512c.1672.1672.2552.3872.2552.616c0,.2376-.088.4488-.2552.616L16.6808,56.14c-.3608.3696-.836.5632-1.3464.5632Zm-1.5136-.9768l.2904.2904c.3256.3256.7568.5104,1.2232.5104.4576,0,.8888-.176,1.2144-.5016l8.6504-8.6152c.132-.132.2024-.308.2024-.4928s-.0704-.3608-.2024-.4928l-1.7424-1.7512c-.132-.132-.308-.2024-.4928-.2024s-.3608.0704-.4928.2024l-8.6504,8.6152c-.3256.3256-.5104.7568-.5104,1.2232.0088.4576.1936.8888.5104,1.2144Z"
                    fill="#363e44" />
                <path
                    d="M25.1991,46.3896c-.0264,0-.044-.0088-.0616-.0264L23.5183,44.744c-.0176-.0176-.0264-.0352-.0264-.0616s.0088-.0441.0264-.0617l5.3328-5.2975c.0352-.0352.088-.0352.1232,0l1.6192,1.6191c.0176.0176.0264.0353.0264.0617s-.0088.044-.0264.0616l-5.3328,5.2976c-.0176.0176-.044.0264-.0616.0264Zm-1.496-1.7072l1.496,1.496l5.2096-5.1744-1.496-1.496-5.2096,5.1744Z"
                    fill="#363e44" />
                <path
                    d="M44.964,45.2192c-5.4296,0-10.5336-2.112-14.3704-5.9488s-5.9488-8.9408-5.9488-14.3704s2.112-10.5336,5.9488-14.3704s8.9408-5.94879,14.3704-5.94879s10.5336,2.112,14.3704,5.94879s5.9488,8.9408,5.9488,14.3704-2.112,10.5336-5.9488,14.3704c-3.8456,3.8368-8.9408,5.9488-14.3704,5.9488Zm0-40.45359c-5.1568,0-10.3136,1.9624-14.2472,5.88719-7.8496,7.8584-7.8496,20.636,0,28.4856s20.636,7.8496,28.4856,0c7.8496-7.8584,7.8496-20.636,0-28.4856-3.9248-3.92479-9.0816-5.88719-14.2384-5.88719Z"
                    fill="#363e44" />
                <path
                    d="M32.1335,12.1664c-.0264,0-.044-.0088-.0616-.0264-.0352-.0352-.0352-.088,0-.1232c5.192-5.19199,12.9448-6.76719,19.7472-4.00399.044.0176.0704.0704.0528.1144s-.0704.0704-.1144.0528c-6.7408-2.7368-14.4144-1.1792-19.5536,3.96879-.0264.0088-.044.0176-.0704.0176Z"
                    fill="#363e44" />
                <path
                    d="M44.9728,43.1337c-1.2496,0-2.4992-.132-3.7312-.3872-3.476-.7216-6.644-2.4376-9.1608-4.9544-.0352-.0352-.0352-.088,0-.1232s.088-.0352.1232,0c4.9896,4.9896,12.4784,6.6176,19.0872,4.1448.044-.0176.0968.0088.1144.0528s-.0088.0968-.0528.1144c-2.0592.7656-4.2152,1.1528-6.38,1.1528Z"
                    fill="#363e44" />
                <path
                    d="M51.5413,31.9024c3.8421-3.8421,3.8421-10.0714,0-13.9135s-10.0713-3.8421-13.9134,0-3.8421,10.0714,0,13.9135s10.0713,3.8421,13.9134,0Z"
                    fill="#f9ceaf" />
                <path
                    d="M39.1647,23.1135c.4048-1.3024,1.628-2.2528,3.0624-2.2528.9328,0,1.7688.396,2.3584,1.0296.5896-.6336,1.4256-1.0296,2.3584-1.0296c1.4432,0,2.6576.9504,3.0624,2.2528.0968.2992.1408.6248.1408.9504c0,1.7688-2.0944,4.7784-5.5616,6.0896-3.4672-1.3112-5.5616-4.3208-5.5616-6.0896c0-.3256.0528-.6424.1408-.9504Z"
                    fill="#8e08af" />
            </g>
        </g>
    </g>
    <path
        d="M42.8343,150.758l4.8576,9.486h30.008L63.3647,127.631l-37.6728-7.594c-11.2552,9.143-7.832,40.207-7.832,40.207h24.9744v-9.486Z"
        fill="#1b1464" />
    <path
        d="M42.0511,149.825c-.0352,0-.0616-.018-.0792-.053l-2.332-4.849c-.0176-.044,0-.097.044-.114.044-.018.0968,0,.1144.044l2.332,4.849c.0176.044,0,.096-.044.114-.0088.009-.0176.009-.0352.009Z"
        fill="#1b1464" />
    <path
        d="M75.2712,90.5127c17.688,5.4208,26.7348,14.2383,23.3463,20.6363-2.1824,4.118-12.5224,4.998-26.708,1.487.8536-5.967,2.1737-14.9249,3.3617-22.1233Z"
        fill="#84524d" />
    <g id="eM673RcCS5b85_to" transform="translate(103.479229,87.563843)">
        <g id="eM673RcCS5b85_tr" transform="rotate(0)">
            <path
                d="M86.4735,97.2359c0,0,8.7912-13.112,13.9485-19.7384c5.412-6.952,14.414-16.4384,15.725-15.1624.748.7304-.211,2.2704-3.053,6.2392.343-.0528,1.372-.0264,1.953.7568.863,1.1616.167,2.1824.141,2.2968.114-.0264,1.364-.2992,2.068.3784.801.7656.871,1.7248.563,2.5432.291-.0616,1.373-.1848,2.033.4928.678.6952.889,1.9184.246,2.7104-1.161,1.452-4.708,5.7025-6.186,7.9817-2.895,4.488-11.062,21.7976-16.9665,27.1746-2.6928-6.371-10.472-15.6731-10.472-15.6731Z"
                transform="translate(-103.479229,-87.563843)" fill="#84524d" />
        </g>
    </g>
    <path
        d="M118.039,78.7912c-.026,0-.044-.0088-.062-.0264l-1.091-1.1352c-.035-.0352-.035-.088,0-.1232s.088-.0352.123,0l1.092,1.1352c.035.0352.035.088,0,.1232-.018.0176-.044.0264-.062.0264Z"
        fill="#363e44" />
    <path
        d="M115.346,76.1071c-.026,0-.044-.0088-.061-.0264l-1.197-1.32c-.035-.0352-.026-.088.009-.1232s.088-.0264.123.0088l1.197,1.32c.035.0352.026.088-.009.1232-.018.0088-.035.0176-.062.0176Z"
        fill="#363e44" />
    <path
        d="M112.715,73.0975c-.026,0-.044-.0088-.061-.0264-.203-.2112-.388-.4048-.572-.5984-.185-.1936-.37-.3872-.572-.5984-.036-.0352-.036-.088,0-.1232.035-.0352.088-.0352.123,0c.202.2112.387.4048.572.5984s.369.3872.572.5984c.035.0352.035.088,0,.1232-.018.0176-.035.0264-.062.0264Z"
        fill="#363e44" />
    <path
        d="M110.313,70.836c-.018,0-.044-.0088-.062-.0264l-1.17-1.0384c-.035-.0352-.035-.088-.009-.1232.035-.0352.088-.0352.123-.0088l1.171,1.0384c.035.0352.035.088.008.1232-.008.0264-.035.0352-.061.0352Z"
        fill="#363e44" />
    <path
        d="M9.23596,121.207c16.70244,3.423,27.50884,5.967,31.17844,6.671.3872.07,1.0648.211,1.9536.132c3.3176-.264,4.3032-2.922,7.6648-4.796c3.8104-2.121,7.1632-1.162,7.3744-2.253.1496-.757-1.012-1.479-3.7224-1.963c2.1032.132,4.9544.185,5.0248-.976.0088-1.347-3.344-1.804-5.3768-1.98c2.4728.22,3.8456-.405,3.7224-1.065-.1936-1.039-2.068-1.646-5.3416-1.804c2.288-.519,2.772-.995,2.5168-1.549-.4576-1.012-3.1504-1.091-5.544-.801-2.6928.335-4.664,1.523-5.896,2.306-11.4488-3.608-19.0344-5.931-28.2216-9.038-1.8744-.625-5.33284,17.116-5.33284,17.116Z"
        fill="#84524d" />
    <path
        d="M18.6079,85.8488C-0.118479,100.404,1.62392,118.259,8.81352,121.084c4.07438,1.602,14.63438-7.77,23.83038-23.6896-5.1656-3.7752-7.6648-7.1368-14.036-11.5456Z"
        fill="#84524d" />
    <path
        d="M5.83923,95.9336c0,0,12.61037-18.7088,41.65037-15.5848C65.3624,82.276,86.94,94.7016,86.94,94.7016L79.5304,117.344l-7.3832-2.191-2.4288,18.189-53.2928-9.072l2.2704-15.048L5.83923,95.9336Z"
        fill="#f9ceaf" />
    <path
        d="M72.1472,115.241c-.0088,0-.0176,0-.0352-.009l-4.4792-1.698c-.044-.018-.0704-.071-.0528-.115s.0704-.07.1144-.053l4.4792,1.699c.044.017.0704.07.0528.114-.0088.044-.044.062-.0792.062Z"
        fill="#f9ceaf" />
    <path
        d="M5.83923,95.9336c0,0,12.61037-18.7088,41.65037-15.5848C65.3624,82.276,86.94,94.7016,86.94,94.7016L79.5304,117.344l-7.3832-2.191-2.4288,18.189-53.2928-9.072l2.2704-15.048L5.83923,95.9336Z"
        transform="translate(-.669329 0)" fill="#f9ceaf" />
    <path
        d="M72.1472,115.241c-.0088,0-.0176,0-.0352-.009l-4.4792-1.698c-.044-.018-.0704-.071-.0528-.115s.0704-.07.1144-.053l4.4792,1.699c.044.017.0704.07.0528.114-.0088.044-.044.062-.0792.062Z"
        fill="#363e44" />
    <g id="eM673RcCS5b96_tr" transform="translate(50.886299,68.463474) rotate(0)">
        <g transform="translate(-50.886299,-68.463474)">
            <path
                d="M59.22,67.2544c-.528-4.2856-1.2144-6.732-3.3-8.3424-2.7984-2.1648-6.556-1.1176-6.9432-.9944-.2464.0704-3.8544.9064-5.192,4.3824-1.3288,3.432-.792,7.436,1.5664,10.2168l-1.7688,7.9287c-.5632,2.5432,1.0384,5.0688,3.5816,5.632l.572.132c2.5432.5632,5.0688-1.0383,5.632-3.5815l1.1792-5.2976c1.6456.2288,3.0272.044,3.7224-.66c1.2408-1.2672,1.5752-4.3648.9504-9.416Z"
                fill="#84524d" />
            <path
                d="M38.4343,62.9335c0-2.1648,1.7512-3.916,3.916-3.916h.0088c-.1936-.4312-.308-.9064-.308-1.408c0-1.8656,1.5136-3.3704,3.3704-3.3704.3872,0,.7656.0704,1.1088.1936.0968-1.7688,1.5664-3.1768,3.3616-3.1768c1.012,0,1.9272.4488,2.5432,1.1616.6952-1.0912,1.9184-1.8128,3.3088-1.8128c2.1032,0,3.8192,1.6456,3.9248,3.7224.0968-.0088.2024-.0176.2992-.0176c1.8656,0,3.3704,1.5136,3.3704,3.3704c0,1.8656-1.5136,3.3704-3.3704,3.3704-.0528,0-.1056-.0088-.1584-.0088-.2552,3.2824-3.74,3.652-3.9512,3.7048.3872,1.5048.7656,3.0184,1.1528,4.5232-.572.1584-1.2672.3872-1.8392.5456-.3256-1.584-.9416-2.2-1.8216-2.3672-1.3904-.2552-2.6928,1.0032-2.8336,2.3672-.1232,1.2408.308,2.5432,1.4872,3.2472-1.408.0176-2.8776,0-4.4176-.0704-.8008-.0352-1.584-.088-2.3408-.1408-.4576-.308-3.4232-2.3496-3.9952-6.16-1.6192-.4664-2.816-1.9712-2.816-3.7576Z"
                fill="#363e44" />
        </g>
    </g>
    <path
        d="M54.6439,77.3039c-.0088,0-.0088,0-.0176,0-.044-.0088-.0792-.0528-.0704-.1056l.3784-1.9536c.0088-.044.0528-.0792.1056-.0704.044.0088.0792.0528.0704.1056l-.3784,1.9536c-.0088.044-.044.0704-.088.0704Z"
        fill="#363e44" />
    <path
        d="M53.2975,70.924c-.0264,0-.0616-.0176-.0792-.044-.1672-.2904-.308-.5544-.4664-.836-.1232-.2288-.2552-.4576-.4048-.7216-.0264-.044-.0088-.0968.0352-.1232s.0968-.0088.1232.0352c.1496.264.2728.4928.4048.7216.1496.2816.2992.5368.4664.8272.0264.044.0088.0968-.0352.1232-.0176.0088-.0264.0176-.044.0176Z"
        fill="#363e44" />
</svg>