<svg id="shipment_box_animated" xmlns="http://www.w3.org/2000/svg" xmlns:xlink="http://www.w3.org/1999/xlink" viewBox="0 0 240 230" shape-rendering="geometricPrecision" text-rendering="geometricPrecision">
<style><![CDATA[
#shipment_box_animated-u-speed_lines_to {animation: shipment_box_animated-u-speed_lines_to__to 1000ms linear infinite normal forwards}@keyframes shipment_box_animated-u-speed_lines_to__to { 0% {transform: translate(69.661911px,81.698494px)} 50% {transform: translate(64.621749px,79.40455px)} 100% {transform: translate(69.661911px,81.698494px)}} #shipment_box_animated-u-back_box_to {animation: shipment_box_animated-u-back_box_to__to 1000ms linear infinite normal forwards}@keyframes shipment_box_animated-u-back_box_to__to { 0% {transform: translate(148.266251px,115.623899px)} 50% {transform: translate(153.306412px,122.447335px)} 100% {transform: translate(148.266251px,115.623899px)}}
]]></style>
<g id="shipment_box_animated-u-shipment_box" transform="translate(4.959839 6.813004)"><g id="shipment_box_animated-u-speed_lines_to" transform="translate(69.661911,81.698494)"><g id="shipment_box_animated-u-speed_lines" transform="translate(-69.661911,-81.698494)"><path id="shipment_box_animated-u-vector" d="M105.869,29.8444c-1.02,1.9317-3.514,2.656-5.328,1.5695L62.2248,7.75051c-1.8138-1.08659-2.494-3.74268-1.4737-5.67438c1.0202-1.931702,3.5142-2.656091,5.328-1.569508L104.395,24.17c1.927,1.0866,2.494,3.6219,1.474,5.6744Z" fill="#d00091"/><path id="shipment_box_animated-u-vector_2" d="M72.5406,47.2297l-.4534.8452c-.9069,1.8109-3.0608,2.4146-4.7612,1.328L38.7589,31.7761c-1.7004-.9658-2.2673-3.2597-1.247-5.0707l.4534-.8451c.9069-1.811,3.0608-2.4147,4.7612-1.3281L71.2937,42.159c1.587,1.0866,2.1538,3.2598,1.2469,5.0707Z" fill="#d00091"/><path id="shipment_box_animated-u-vector_3" d="M79.1156,161.321c-1.0202,1.932-3.5142,2.656-5.328,1.569L2.02972,118.703c-1.813786-1.087-2.493956-3.743-1.473701-5.675c1.020251-1.931,3.514211-2.656,5.328001-1.569L77.6419,155.526c1.9272,1.207,2.6074,3.742,1.4737,5.795Z" fill="#d00091"/><path id="shipment_box_animated-u-vector_4" d="M71.9739,105.06c-1.0203,1.932-3.5143,2.656-5.328,1.57L14.9529,74.7565c-1.8137-1.0866-2.4939-3.7427-1.4737-5.6744s3.5142-2.6561,5.328-1.5695L70.5001,99.265c1.9272,1.207,2.494,3.743,1.4738,5.795Z" fill="#d00091"/><path id="shipment_box_animated-u-vector_5" d="M138.744,29.8444c-1.02,1.9317-3.514,2.656-5.328,1.5695L95.0995,7.75051c-1.8137-1.08659-2.4939-3.74268-1.4737-5.67438c1.0203-1.931702,3.5143-2.656091,5.328-1.569508L137.27,24.17c1.927,1.0866,2.494,3.6219,1.474,5.6744Z" fill="#d00091"/><path id="shipment_box_animated-u-vector_6" d="M105.416,47.2297l-.454.8452c-.907,1.8109-3.061,2.4146-4.761,1.328L71.6338,31.7761c-1.7005-.9658-2.2673-3.2597-1.247-5.0707l.4534-.8451c.9069-1.811,3.0608-2.4147,4.7612-1.3281L104.169,42.159c1.587,1.0866,2.153,3.2598,1.247,5.0707Z" fill="#d00091"/><path id="shipment_box_animated-u-vector_7" d="M111.991,161.321c-1.021,1.932-3.515,2.656-5.328,1.569L34.9046,118.703c-1.8138-1.087-2.494-3.743-1.4737-5.675c1.0203-1.931,3.5142-2.656,5.328-1.569l71.7581,44.067c1.927,1.207,2.607,3.742,1.474,5.795Z" fill="#d00091"/><path id="shipment_box_animated-u-vector_8" d="M104.849,105.06c-1.021,1.932-3.514,2.656-5.3283,1.57L47.8278,74.7565c-1.8138-1.0866-2.4939-3.7427-1.4737-5.6744s3.5142-2.6561,5.328-1.5695L103.375,99.265c1.927,1.207,2.494,3.743,1.474,5.795Z" fill="#d00091"/></g></g><g id="shipment_box_animated-u-back_box_to" transform="translate(148.266251,115.623899)"><g id="shipment_box_animated-u-back_box" transform="translate(-148.266251,-115.623899)"><path id="shipment_box_animated-u-vector_9" d="M66.5325,67.2712L149.286,14.8738L230,66.0639v99.7241l-81.734,50.586-81.7335-49.982v-99.1208Z" fill="#f9ceaf"/><path id="shipment_box_animated-u-vector_10" d="M121.059,32.7421L202.793,83.57v29.579l-23.352,12.918v-26.8019L97.2535,47.8335L121.059,32.7421Z" fill="#8e08af"/></g></g></g><path id="shipment_box_animated-s-path1" d="" fill="none" stroke="#3f5787" stroke-width="0.5"/></svg>
