<?xml version="1.0" encoding="utf-8"?>
<!-- Generator: Adobe Illustrator 27.1.1, SVG Export Plug-In . SVG Version: 6.00 Build 0)  -->
<svg version="1.1" id="ef35DoOGYxe1" shape-rendering="geometricPrecision" text-rendering="geometricPrecision"
    xmlns="http://www.w3.org/2000/svg" xmlns:xlink="http://www.w3.org/1999/xlink" x="0px" y="0px" viewBox="0 0 426 394"
    style="enable-background:new 0 0 426 394;" xml:space="preserve">
    <style type="text/css">
        .st0 {
            opacity: 0.83;
        }

        .st1 {
            fill: url(#logo-background_00000074404407231533285770000013035243585822956463_);
        }

        .st2 {
            fill: #FFFFFF;
        }

        .st3 {
            fill: none;
        }
    </style>
    <g id="logo-background-group" class="st0">


        <g>

            <linearGradient id="logo-background_00000059268747439909423290000008900036274305738640_"
                gradientUnits="userSpaceOnUse" x1="89.7825" y1="91.1927" x2="372.7782" y2="346.7376"
                gradientTransform="matrix(1 0 0 -1 0 396)">
                <stop id="start-grad-fill-0" offset="0%" stop-color="#9a00bd" />
                <stop id="start-grad-fill-1" offset="39.7%" stop-color="#c4009b" />
                <stop id="start-grad-fill-2" offset="50.41%" stop-color="#D00091" />
                <stop id="start-grad-fill-3" offset="100%" stop-color="#ffad6a" />
            </linearGradient>
            <path id="logo-background"
                style="fill:url(#logo-background_00000059268747439909423290000008900036274305738640_);" d="
			M352.2,374.7l-276.6,1.8c-24.1,0.3-43.6-19.3-43.9-43.4L30,56.6c-0.3-24.1,19.3-43.6,43.4-43.9l276.6-1.8
			c24.1-0.3,43.6,19.3,43.9,43.4l1.8,276.6C395.6,354.9,376.3,374.7,352.2,374.7z" />
        </g>
    </g>
    <g id="logo-foreground" transform="translate(211.606287,185.849991) rotate(0)">
        <g transform="translate(-211.606285,-185.849989)">


            <g>
                <g>
                    <g>
                        <path class="st2" d="M300.2,155.3l-28.7,29.2c-1.3,1.3-3.3,0.5-3.6-1c-0.8-3.3-2.3-6.1-4.8-8.6c-4.8-4.6-11.4-6.1-17.5-4.3
						c-1.5,0.5-2.8,0-4.1-1l-60.4-59.6c-1.5-1.5-3.3-2-5.3-2c-1.8,0-3.8,0.8-5.3,2.3c-2.8,2.8-2.8,7.6,0,10.4l32,31.7l29.2,28.9
						c0.8,0.8,1.3,2,1,3.3c-1,5.6,0.5,11.7,5.1,16c3.6,3.6,8.4,5.3,12.9,5.1l0,0L220,236.7l0,0l-27.7-27.4c-1.5-1.5-2-3.6-1.8-5.8
						c0.8-5.3-0.8-11.2-5.1-15.2c-3.6-3.6-8.4-5.3-12.9-5.1c-2.5,0-5.1,0.8-7.6,2c-0.5,0.3-1,0.3-1.5-0.3L134,155.8
						c-6.6-6.6-6.9-17.5-0.3-24.1l52.3-53c9.9-9.9,25.9-10.1,35.8-0.3L300.2,155.3L300.2,155.3L300.2,155.3z" />
                    </g>
                    <g>
                        <path class="st2" d="M290.8,255.5l-53.5,54c-9.9,9.9-25.6,9.9-35.5,0.3l-78.4-77.4l0,0l28.4-28.9c1.3-1.3,3.6-0.8,4.1,1.3
						c0.8,3,2.3,5.8,4.8,8.4c4.6,4.6,10.9,6.1,16.5,4.6c1.5-0.5,3.3,0.3,4.6,1.3l61.1,60.4c2.8,2.8,7.6,3,10.7,0.3
						c3-2.8,3-7.6,0-10.7l-62.2-61.4c-0.8-0.8-1.3-2-1-3.3c1.3-5.8-0.3-12.2-4.8-16.7c-3.6-3.6-8.4-5.3-12.9-5.1l0,0l30.4-30.7l0,0
						l29.2,28.7c0.8,0.8,1.3,2,1,3.3c-1,5.6,0.5,11.7,5.1,16c3.6,3.6,8.4,5.3,12.9,5.1c2,0,3.8-0.5,5.8-1c1.8-0.8,3.6-0.3,5.1,1
						l28.9,28.7C296.9,239.5,296.9,249.4,290.8,255.5L290.8,255.5z" />
                    </g>
                    <g>
                        <path class="st2" d="M186.8,153L115.5,225h-0.3l-10.1-9.9c-5.1-5.1-5.1-12.9,0-18l62.4-63.2h0.3l19,18.8
						C186.8,152.7,186.8,152.7,186.8,153z" />
                    </g>
                    <g>
                        <path class="st2" d="M322.3,188.5l-66.2,67l0,0l-19.3-19l0,0l71.5-72.6l0,0l13.7,13.7C325.1,180.6,325.1,185.5,322.3,188.5
						L322.3,188.5z" />
                    </g>
                </g>
            </g>
        </g>
    </g>
    <g>
        <g>
            <path class="st3"
                d="M166,195.1L154.1,207c0-4.3,1.8-8.9,5.1-12.2c1-1.3,2.3-2,3.8-2.8L166,195.1L166,195.1z" />
        </g>
    </g>
</svg>