<svg width="174" height="167" viewBox="0 0 174 167" fill="none" xmlns="http://www.w3.org/2000/svg">
    <style>
        <![CDATA[
        @keyframes buyer_approval_board_movement {

            0%,
            100% {
                transform: translateY(0px) rotateX(0deg);
            }

            25% {
                transform: translateY(1px) rotateX(10deg);
            }

            75% {
                transform: translateY(-1px) rotateX(-10deg);
            }
        }

        @keyframes buyer_body_movement {

            0%,
            100% {
                transform: translateY(0px);
            }

            25% {
                transform: translateY(0.5px);
            }

            75% {
                transform: translateY(-0.5px);
            }
        }

        #to_be_animated {
            animation: buyer_approval_board_movement;
            animation-iteration-count: infinite;
            animation-duration: 1s;
        }

        #buyer_body {
            animation: buyer_body_movement;
            animation-iteration-count: infinite;
            animation-duration: 1s;
        }
        ]]>
    </style>
    <g id="buyer_approves">
        <g id="Group">
            <g id="buyer_body">
                <path id="Vector"
                    d="M86.4029 50.357C100.017 50.357 111.053 39.2759 111.053 25.6067C111.053 11.9375 100.017 0.856445 86.4029 0.856445C72.7891 0.856445 61.7529 11.9375 61.7529 25.6067C61.7529 39.2759 72.7891 50.357 86.4029 50.357Z"
                    fill="#D00091" />
                <path id="Vector_2"
                    d="M43.4148 75.5354H129.988C129.988 75.5354 120.691 56.6944 87.5119 55.5811C54.3324 54.4677 43.4148 75.5354 43.4148 75.5354Z"
                    fill="#D00091" />
            </g>
            <g id="to_be_animated">
                <path id="Vector_3"
                    d="M31.9 82.301H140.224V104.825C140.224 104.825 123.676 107.822 121.8 125.293C119.924 142.764 140.224 146.361 140.224 146.361V165.801H31.9V149.101C33.7765 149.187 40.7706 149.101 46.7412 143.877C55.4412 136.341 54.1618 124.865 53.9912 123.923C53.8206 122.724 52.4559 114.502 44.8647 109.877C39.2353 106.452 33.6059 106.966 31.9 107.223V82.301Z"
                    fill="#F9CEAF" />
                <path id="Vector_4"
                    d="M87.6824 153.469C103.463 153.469 116.256 140.624 116.256 124.779C116.256 108.934 103.463 96.0892 87.6824 96.0892C71.9017 96.0892 59.1089 108.934 59.1089 124.779C59.1089 140.624 71.9017 153.469 87.6824 153.469Z"
                    fill="#8E08AF" />
                <path id="approval_check_vector"
                    d="M84.3559 130.688L100.306 115.359C100.306 115.359 105.338 111.847 103.803 118.013L87.7676 134.885C87.7676 134.885 84.2706 138.139 80.4323 134.885L74.2059 127.605C74.2059 127.605 73.7794 122.381 79.4088 124.693L84.3559 130.688Z"
                    fill="white" />
                <path id="Vector_5"
                    d="M140.991 140.88C147.775 140.88 153.274 134.361 153.274 126.321C153.274 118.28 147.775 111.762 140.991 111.762C134.208 111.762 128.709 118.28 128.709 126.321C128.709 134.361 134.208 140.88 140.991 140.88Z"
                    fill="#D00091" />
                <path id="Vector_6"
                    d="M35.3971 142.764C42.1805 142.764 47.6795 136.245 47.6795 128.205C47.6795 120.164 42.1805 113.646 35.3971 113.646C28.6137 113.646 23.1147 120.164 23.1147 128.205C23.1147 136.245 28.6137 142.764 35.3971 142.764Z"
                    fill="#D00091" />
            </g>
        </g>
    </g>
</svg>