<svg id="e4UFGuZWePo1" width="150px" xmlns="http://www.w3.org/2000/svg" xmlns:xlink="http://www.w3.org/1999/xlink"
    viewBox="0 0 190 181" shape-rendering="geometricPrecision" text-rendering="geometricPrecision">
    <style>
        <![CDATA[
        #dollar_to {
            animation: move 1500ms linear infinite normal forwards;
        }

        #dollar {
            animation: fade 1500ms linear infinite normal forwards;
        }

        #hand {
            animation: move_hand 1500ms linear infinite normal forwards;
        }

        #lock_to {
            animation: move_lock 1500ms linear infinite normal forwards;
        }

        @keyframes move {

            0%,
            20% {
                transform: translate(97.3284px, 72.678552px);
            }

            70%,
            100% {
                transform: translate(97.3284px, 60.96089px);
            }
        }

        @keyframes fade {

            0%,
            20% {
                opacity: 0;
            }

            70%,
            100% {
                opacity: 1;
            }
        }

        @keyframes move_hand {

            0%,
            40%,
            100% {
                transform: translate(105.570999px, 114.202133px);
            }

            20% {
                transform: translate(105.989999px, 111.564903px);
            }
        }

        @keyframes move_lock {

            0%,
            20%,
            100% {
                transform: translate(97.3284px, 155.567px);
            }

            40% {
                transform: translate(97.3284px, 157.567px);
            }

            80% {
                transform: translate(97.3284px, 154.567px);
            }
        }

        @keyframes lock_top_close {

            0,
            20% {
                stroke-dashoffset: -10;
            }

            40% {
                stroke-dashoffset: 0;
            }

            100% {
                stroke-dashoffset: 0;
            }
        }

        #lock_top {
            animation: lock_top_close 1.5s linear infinite normal forwards;
        }

        @keyframes rotate_outline {
            0% {}

            100% {
                stroke-dashoffset: 480
            }
        }

        #circle_outline {
            animation: rotate_outline 20s linear infinite normal forwards;
        }
        ]]>
    </style>
    <g>
        <g>
            <g>
                <path
                    d="M66.8725,119.274c0,0-22.446-9.56-18.5343-31.1873c0,0,1.5834-11.9739,5.0294-18.1c3.353-6.219,3.0736-17.1718,3.0736-17.1718l.2794-16.1508c0,0,11.0833-3.1559,11.6421,6.7759.4657,9.9318,0,62.097,0,62.097l4.0981,4.827c-.0932-.093-5.1226,3.063-5.5883,8.91Z"
                    fill="#f9ceaf" />
                <path d="M126.48,44.6467v13.3662c0,0,10.711-1.4851,9.873-10.3031-.931-8.7251-9.873-3.0631-9.873-3.0631Z"
                    fill="#f9ceaf" />
                <path
                    d="M122.662,91.8924c0,0,7.358-3.3416,8.103,2.3205.745,5.7549-2.888,5.8481-2.888,5.8481.5s-8.103,4.084-10.99-1.8568c-2.794-5.9405,5.775-6.3118,5.775-6.3118Z"
                    fill="#f9ceaf" />
                <path
                    d="M123.221,78.062c0,0,7.357-3.3415,8.102,2.3206.746,5.662-2.887,5.8477-2.887,5.8477s-8.103,4.0841-10.99-1.8565c-2.887-5.9405,5.775-6.3118,5.775-6.3118Z"
                    fill="#f9ceaf" />
                <path
                    d="M122.662,63.5821c0,0,7.358-3.3416,8.103,2.3205.745,5.7549-2.888,5.8477-2.888,5.8477s-8.103,4.0841-10.99-1.8564c-2.794-5.9405,5.775-6.3118,5.775-6.3118Z"
                    fill="#f9ceaf" />
            </g>
            <g>
                <path
                    d="M76.5588,37.778h40.2352v23.6692l5.775-2.6918v-25.4328c0,0,1.49-7.7969-6.334-7.6113h-37.2546c0,0-7.6372-1.2995-7.6372,7.3328v69.6159c0,0-1.4902,9.56,15.2745,7.24v-16.2441h-10.6177l.5588-55.8779Z"
                    fill="#D00091" />
                <g id="dollar_to" transform="translate(97.3284,72.678552)">
                    <g id="dollar" transform="translate(-97.3284,-57.92005)" opacity="0">
                        <path
                            d="M97.3285,72.5857c8.1275,0,14.7155-6.5661,14.7155-14.6657s-6.588-14.6656-14.7155-14.6656c-8.1273,0-14.7157,6.566-14.7157,14.6656s6.5884,14.6657,14.7157,14.6657Z"
                            fill="#8e08af" />
                        <path
                            d="M97.6685,66.5028v-16.5091h1.0576v16.5091h-1.0576ZM100.474,55.443c-.052-.5202-.273-.9243-.6645-1.2124-.3912-.288-.9222-.432-1.5929-.432-.4557,0-.8405.0645-1.1543.1934-.3139.1247-.5546.2988-.7223.5224-.1634.2236-.2451.4772-.2451.761-.0086.2364.0409.4428.1484.6191.1117.1762.2644.3288.4578.4578.1935.1247.4171.2343.6707.3289.2537.0903.5245.1677.8126.2322l1.1866.2837c.5761.129,1.105.301,1.586.5159.482.215.899.4794,1.251.7932.353.3139.626.6836.819,1.1093.198.4256.299.9135.304,1.4638-.005.8083-.211,1.5091-.62,2.1024-.404.589-.988,1.0468-1.754,1.3736-.761.3224-1.6785.4836-2.7533.4836-1.0662,0-1.9948-.1633-2.7859-.4901-.7868-.3267-1.4015-.8104-1.8444-1.451-.4385-.6448-.6685-1.4424-.69-2.3925h2.7021c.0301.4428.1569.8126.3805,1.1092.2278.2924.5309.5138.9093.6642.3826.1462.8147.2193,1.2962.2193.4729,0,.8835-.0688,1.2317-.2064.3525-.1375.6258-.3288.8188-.5739.194-.2451.29-.5267.29-.8448c0-.2967-.088-.546-.264-.7481-.172-.202-.4256-.374-.761-.5159-.331-.1419-.7373-.2708-1.2188-.3869l-1.4381-.3612c0,0-1.9927-.6943-2.6376-1.2704s-.9652-1.3521-.9609-2.328c-.0043-.7997.2086-1.4983.6385-2.0959.4342-.5976,1.0297-1.0641,1.7863-1.3994s1.6165-.503,2.5796-.503c.9802,0,1.836.1677,2.567.503.735.3353,1.307.8018,1.715,1.3994s.619,1.2898.632,2.0765h-2.676Z"
                            fill="#d9d9d9" />
                    </g>
                </g>
                <path d="M105.99,94.2129h6.892v6.5901h-6.426l-.466-6.5901Z" fill="#D00091" />
            </g>
        </g>
        <g id="hand" transform="translate(105.570999,114.202133)">
            <path
                d="M84.2892,134.033c0,0-5.3088-11.696-14.3432-18.1c0,0,.652-7.333,9.6863-4.641c0,0,6.9853,1.671,10.4314,10.024v-38.1488c0,0,.0931-8.0754,7.2647-7.5184c0,0,6.5196.4641,6.1466,7.5184v23.8548c0,0,2.981-6.869,8.01-4.919c5.03,1.949,4.657,8.261,4.657,8.261.5s3.446-7.983,8.103-5.198c4.657,2.691,4.471,10.581,4.471,10.581.5s4.284-5.847,7.73-3.898s4.75,6.312,4.75,6.312v23.39l-22.912,11.232-33.9948-18.75Z"
                transform="translate(-105.570999,-114.202133)" fill="#D00091" />
        </g>
        <path id="circle_outline"
            d="M94.5343,157.331c42.2827,0,76.5587-34.16,76.5587-76.2986c0-42.1385-34.276-76.29851-76.5587-76.29851-42.2823,0-76.5588,34.16001-76.5588,76.29851c0,42.1386,34.2765,76.2986,76.5588,76.2986Z"
            fill="none" stroke="#8e08af" stroke-width="7" stroke-linecap="round" stroke-miterlimit="10"
            stroke-dasharray="14" />
        <g>
            <path
                d="M96.9559,177.287c12.0361,0,21.7941-9.724,21.7941-21.72c0-11.995-9.758-21.72-21.7941-21.72-12.0366,0-21.7942,9.725-21.7942,21.72c0,11.996,9.7576,21.72,21.7942,21.72Z"
                fill="#8e08af" />
            <g id="lock_to" transform="translate(97.3284,155.567)">
                <g transform="translate(-96.956097,-154.546005)">
                    <path
                        d="M106.27,156.495v4.085c0,2.042-1.677,3.712-3.726,3.712h-11.1763c-2.049,0-3.7255-1.67-3.7255-3.712v-4.085c0-2.042,1.6765-3.712,3.7255-3.712h11.1763c2.049,0,3.726,1.67,3.726,3.712Z"
                        fill="none" stroke="#fff" stroke-width="3" stroke-miterlimit="10" />
                    <path id="lock_top"
                        d="M101.892,152.875v-4.269c0-2.042-1.77-3.806-3.8185-3.806h-1.4902c-2.1422,0-3.8187,1.764-3.8187,3.806c0-.302795,0-.887764,0,4.269"
                        fill="none" stroke="#fff" stroke-width="3" stroke-miterlimit="10" stroke-dashoffset="-8"
                        stroke-dasharray="22.36" />
                </g>
            </g>
        </g>
    </g>
</svg>