<?xml version="1.0" encoding="utf-8"?>
<svg viewBox="0 0 1104.652 77.202" xmlns="http://www.w3.org/2000/svg">
    <defs />
    <g id="svgGroup" stroke-linecap="round" fill-rule="nonzero" font-size="9pt" fill="#fff"
        style="stroke:#fff;stroke-width:0.25mm;fill:#fff">
        <path
            d="M 35.795 76.136 L 20.81 76.136 L 0 3.409 L 16.797 3.409 L 28.835 53.942 L 29.439 53.942 L 42.72 3.409 L 57.102 3.409 L 70.348 54.048 L 70.987 54.048 L 83.026 3.409 L 99.822 3.409 L 79.013 76.136 L 64.027 76.136 L 50.178 28.587 L 49.609 28.587 L 35.795 76.136 Z"
            id="0" />
        <path
            d="M 157.635 48.58 L 157.635 52.734 L 111.577 52.734 L 111.577 43.359 L 143.395 43.359 A 12.786 12.786 0 0 0 142.994 40.099 A 10.632 10.632 0 0 0 141.974 37.571 A 10.336 10.336 0 0 0 138.05 33.612 A 10.789 10.789 0 0 0 134.039 32.287 A 13.765 13.765 0 0 0 132.244 32.173 A 12.776 12.776 0 0 0 128.81 32.619 A 10.788 10.788 0 0 0 126.154 33.754 Q 123.509 35.334 122.017 37.979 A 11.945 11.945 0 0 0 120.5 43.455 A 14.055 14.055 0 0 0 120.49 43.857 L 120.49 52.77 A 18.297 18.297 0 0 0 120.779 56.102 A 13.307 13.307 0 0 0 121.999 59.766 Q 123.509 62.713 126.278 64.311 A 11.761 11.761 0 0 0 130.25 65.703 A 15.723 15.723 0 0 0 132.848 65.909 A 15.57 15.57 0 0 0 135.656 65.665 A 12.82 12.82 0 0 0 137.464 65.199 A 9.883 9.883 0 0 0 140.164 63.811 A 9.083 9.083 0 0 0 141.051 63.068 A 9.177 9.177 0 0 0 143.197 59.906 A 10.7 10.7 0 0 0 143.324 59.588 L 157.315 60.511 Q 156.25 65.554 152.965 69.301 A 20.964 20.964 0 0 1 146.832 74.059 A 25.753 25.753 0 0 1 144.513 75.124 Q 139.347 77.202 132.599 77.202 A 34.708 34.708 0 0 1 125.687 76.546 A 25.561 25.561 0 0 1 118.129 73.775 A 23.18 23.18 0 0 1 108.807 64.045 A 28.395 28.395 0 0 1 106.1 55.86 A 38.817 38.817 0 0 1 105.54 49.112 A 36.718 36.718 0 0 1 106.306 41.442 A 28.437 28.437 0 0 1 108.807 34.34 A 24.113 24.113 0 0 1 118.022 24.432 A 24.904 24.904 0 0 1 127.183 21.228 A 32.334 32.334 0 0 1 131.996 20.881 A 29.892 29.892 0 0 1 139.379 21.771 A 26.852 26.852 0 0 1 142.063 22.603 Q 146.733 24.325 150.231 27.77 Q 153.729 31.215 155.682 36.417 A 29.336 29.336 0 0 1 157.177 42.249 Q 157.635 45.208 157.635 48.58 Z"
            id="1" />
        <path d="M 167.507 3.409 L 182.635 3.409 L 182.635 76.136 L 167.507 76.136 L 167.507 3.409 Z" id="2" />
        <path
            d="M 243.714 41.761 L 229.439 41.761 A 12.972 12.972 0 0 0 228.51 38.438 A 10.231 10.231 0 0 0 226.261 35.174 A 8.707 8.707 0 0 0 221.392 32.808 A 12.139 12.139 0 0 0 219.531 32.671 Q 216.016 32.671 213.406 34.57 A 10.988 10.988 0 0 0 210.623 37.572 A 15.108 15.108 0 0 0 209.339 40.092 Q 208.053 43.294 207.903 47.688 A 34.585 34.585 0 0 0 207.884 48.864 Q 207.884 53.282 208.914 56.581 A 17.107 17.107 0 0 0 209.322 57.742 A 14.751 14.751 0 0 0 210.777 60.564 A 10.819 10.819 0 0 0 213.388 63.317 A 9.994 9.994 0 0 0 218.88 65.218 A 12.453 12.453 0 0 0 219.531 65.234 A 10.86 10.86 0 0 0 222.357 64.878 A 9.33 9.33 0 0 0 224.201 64.169 A 9.105 9.105 0 0 0 227.635 61.078 A 10.496 10.496 0 0 0 227.646 61.062 A 10.761 10.761 0 0 0 228.987 58.184 A 14.134 14.134 0 0 0 229.439 56.144 L 243.714 56.144 Q 243.359 62.394 240.323 67.134 A 20.597 20.597 0 0 1 232.291 74.37 A 24.395 24.395 0 0 1 231.96 74.538 A 24.458 24.458 0 0 1 225.35 76.692 A 33.596 33.596 0 0 1 219.354 77.202 Q 210.973 77.202 204.954 73.633 A 23.738 23.738 0 0 1 195.721 63.707 A 29.586 29.586 0 0 1 192.887 54.539 A 38.024 38.024 0 0 1 192.507 49.077 Q 192.507 40.696 195.756 34.357 Q 199.006 28.019 205.007 24.45 A 25.034 25.034 0 0 1 213.746 21.322 A 33.429 33.429 0 0 1 219.283 20.881 A 33.28 33.28 0 0 1 225.584 21.45 A 25.076 25.076 0 0 1 231.783 23.473 A 21.34 21.34 0 0 1 238.539 28.508 A 20.457 20.457 0 0 1 240.27 30.753 Q 243.395 35.44 243.714 41.761 Z"
            id="3" />
        <path
            d="M 271.054 76.476 A 24.788 24.788 0 0 1 263.796 73.668 A 23.88 23.88 0 0 1 254.51 63.796 A 29.077 29.077 0 0 1 251.647 54.717 A 38.034 38.034 0 0 1 251.243 49.077 A 37.061 37.061 0 0 1 251.961 41.618 A 28.364 28.364 0 0 1 254.51 34.286 A 23.88 23.88 0 0 1 263.796 24.414 A 25.272 25.272 0 0 1 272.434 21.337 A 33.702 33.702 0 0 1 278.089 20.881 A 32.591 32.591 0 0 1 285.125 21.606 A 24.788 24.788 0 0 1 292.383 24.414 A 23.88 23.88 0 0 1 301.669 34.286 A 28.938 28.938 0 0 1 304.477 43.035 A 38.234 38.234 0 0 1 304.936 49.077 A 36.445 36.445 0 0 1 304.17 56.717 A 28.312 28.312 0 0 1 301.669 63.796 A 23.88 23.88 0 0 1 292.383 73.668 A 25.272 25.272 0 0 1 283.745 76.745 A 33.702 33.702 0 0 1 278.089 77.202 A 32.591 32.591 0 0 1 271.054 76.476 Z M 278.161 65.483 A 10.867 10.867 0 0 0 281.216 65.072 A 8.665 8.665 0 0 0 284.446 63.335 Q 286.967 61.186 288.263 57.457 A 22.804 22.804 0 0 0 289.312 52.937 A 30.402 30.402 0 0 0 289.56 48.97 A 29.894 29.894 0 0 0 289.246 44.536 A 22.48 22.48 0 0 0 288.263 40.483 A 15.694 15.694 0 0 0 286.837 37.425 A 11.908 11.908 0 0 0 284.446 34.588 Q 281.925 32.422 278.161 32.422 A 11.009 11.009 0 0 0 275.019 32.852 A 8.893 8.893 0 0 0 271.786 34.588 A 12.069 12.069 0 0 0 268.958 38.104 A 15.894 15.894 0 0 0 267.915 40.483 A 22.804 22.804 0 0 0 266.867 45.004 A 30.402 30.402 0 0 0 266.619 48.97 A 29.894 29.894 0 0 0 266.933 53.405 A 22.48 22.48 0 0 0 267.915 57.457 A 15.165 15.165 0 0 0 269.382 60.559 A 11.665 11.665 0 0 0 271.786 63.335 A 9.186 9.186 0 0 0 276.64 65.391 A 12.215 12.215 0 0 0 278.161 65.483 Z"
            id="4" />
        <path
            d="M 329.936 76.136 L 314.808 76.136 L 314.808 21.591 L 329.226 21.591 L 329.226 31.215 L 329.865 31.215 A 15.131 15.131 0 0 1 335.547 23.651 A 15.367 15.367 0 0 1 342.387 21.055 A 20.036 20.036 0 0 1 345.064 20.881 A 18.797 18.797 0 0 1 349.787 21.448 A 14.64 14.64 0 0 1 354.616 23.668 Q 358.558 26.456 359.872 31.215 L 360.44 31.215 A 14.574 14.574 0 0 1 366.495 23.704 Q 370.881 20.881 376.882 20.881 A 19.617 19.617 0 0 1 382.614 21.681 A 15.622 15.622 0 0 1 389.293 25.728 A 15.776 15.776 0 0 1 393.22 32.68 Q 394.07 35.708 394.07 39.453 L 394.07 76.136 L 378.977 76.136 L 378.977 42.436 A 13.602 13.602 0 0 0 378.744 39.832 Q 378.455 38.348 377.804 37.204 A 6.728 6.728 0 0 0 376.563 35.618 A 8.291 8.291 0 0 0 371.303 33.372 A 10.948 10.948 0 0 0 370.526 33.345 A 10.425 10.425 0 0 0 367.799 33.682 A 7.407 7.407 0 0 0 364.098 35.955 A 8.956 8.956 0 0 0 362.066 40.078 A 12.998 12.998 0 0 0 361.79 42.827 L 361.79 76.136 L 347.124 76.136 L 347.124 42.117 A 11.381 11.381 0 0 0 346.815 39.39 A 7.903 7.903 0 0 0 344.833 35.725 A 7.656 7.656 0 0 0 340.06 33.416 A 10.615 10.615 0 0 0 338.814 33.345 A 8.626 8.626 0 0 0 335.675 33.908 A 8.093 8.093 0 0 0 334.286 34.606 A 8.781 8.781 0 0 0 331.335 37.707 A 10.488 10.488 0 0 0 331.108 38.122 A 10.236 10.236 0 0 0 330.101 41.238 A 13.574 13.574 0 0 0 329.936 43.395 L 329.936 76.136 Z"
            id="5" />
        <path
            d="M 455.895 48.58 L 455.895 52.734 L 409.837 52.734 L 409.837 43.359 L 441.655 43.359 A 12.786 12.786 0 0 0 441.254 40.099 A 10.632 10.632 0 0 0 440.234 37.571 A 10.336 10.336 0 0 0 436.31 33.612 A 10.789 10.789 0 0 0 432.299 32.287 A 13.765 13.765 0 0 0 430.504 32.173 A 12.776 12.776 0 0 0 427.07 32.619 A 10.788 10.788 0 0 0 424.414 33.754 Q 421.768 35.334 420.277 37.979 A 11.945 11.945 0 0 0 418.76 43.455 A 14.055 14.055 0 0 0 418.75 43.857 L 418.75 52.77 A 18.297 18.297 0 0 0 419.039 56.102 A 13.307 13.307 0 0 0 420.259 59.766 Q 421.768 62.713 424.538 64.311 A 11.761 11.761 0 0 0 428.51 65.703 A 15.723 15.723 0 0 0 431.108 65.909 A 15.57 15.57 0 0 0 433.916 65.665 A 12.82 12.82 0 0 0 435.724 65.199 A 9.883 9.883 0 0 0 438.424 63.811 A 9.083 9.083 0 0 0 439.311 63.068 A 9.177 9.177 0 0 0 441.457 59.906 A 10.7 10.7 0 0 0 441.584 59.588 L 455.575 60.511 Q 454.51 65.554 451.225 69.301 A 20.964 20.964 0 0 1 445.092 74.059 A 25.753 25.753 0 0 1 442.773 75.124 Q 437.607 77.202 430.859 77.202 A 34.708 34.708 0 0 1 423.947 76.546 A 25.561 25.561 0 0 1 416.388 73.775 A 23.18 23.18 0 0 1 407.067 64.045 A 28.395 28.395 0 0 1 404.36 55.86 A 38.817 38.817 0 0 1 403.8 49.112 A 36.718 36.718 0 0 1 404.566 41.442 A 28.437 28.437 0 0 1 407.067 34.34 A 24.113 24.113 0 0 1 416.282 24.432 A 24.904 24.904 0 0 1 425.443 21.228 A 32.334 32.334 0 0 1 430.256 20.881 A 29.892 29.892 0 0 1 437.639 21.771 A 26.852 26.852 0 0 1 440.323 22.603 Q 444.993 24.325 448.491 27.77 Q 451.989 31.215 453.942 36.417 A 29.336 29.336 0 0 1 455.437 42.249 Q 455.895 45.208 455.895 48.58 Z"
            id="6" />
        <path
            d="M 492.578 61.364 L 492.578 8.523 L 507.706 8.523 L 507.706 59.375 C 507.704 59.782 507.725 60.188 507.768 60.593 C 507.811 60.98 507.877 61.334 507.964 61.656 C 508.052 61.993 508.18 62.318 508.345 62.624 C 508.565 63.031 508.86 63.393 509.213 63.692 C 509.491 63.922 509.803 64.107 510.138 64.24 C 510.581 64.414 511.042 64.537 511.512 64.607 C 511.945 64.672 512.382 64.704 512.82 64.702 C 513.534 64.701 514.247 64.636 514.95 64.506 C 515.661 64.376 516.205 64.276 516.584 64.205 L 518.963 75.462 C 518.755 75.527 518.547 75.588 518.337 75.647 C 517.867 75.78 517.315 75.923 516.682 76.078 C 516.377 76.152 516.072 76.225 515.767 76.296 C 515.166 76.434 514.558 76.543 513.947 76.624 C 512.989 76.754 511.927 76.84 510.76 76.882 C 510.353 76.898 509.946 76.906 509.539 76.906 C 507.993 76.906 506.534 76.787 505.161 76.548 C 503.801 76.317 502.47 75.941 501.19 75.426 C 499.514 74.763 497.984 73.779 496.685 72.53 C 495.978 71.84 495.35 71.073 494.815 70.242 C 493.324 67.934 492.578 65.029 492.578 61.528 C 492.578 61.473 492.578 61.419 492.578 61.364 Z M 517.966 33.02 L 485.121 32.955 L 485.124 21.578 L 517.969 21.591 L 517.966 33.02 Z"
            id="8" />
        <path
            d="M 545.415 76.476 A 24.788 24.788 0 0 1 538.157 73.668 A 23.88 23.88 0 0 1 528.871 63.796 A 29.077 29.077 0 0 1 526.007 54.717 A 38.034 38.034 0 0 1 525.604 49.077 A 37.061 37.061 0 0 1 526.322 41.618 A 28.364 28.364 0 0 1 528.871 34.286 A 23.88 23.88 0 0 1 538.157 24.414 A 25.272 25.272 0 0 1 546.794 21.337 A 33.702 33.702 0 0 1 552.45 20.881 A 32.591 32.591 0 0 1 559.486 21.606 A 24.788 24.788 0 0 1 566.744 24.414 A 23.88 23.88 0 0 1 576.03 34.286 A 28.938 28.938 0 0 1 578.837 43.035 A 38.234 38.234 0 0 1 579.297 49.077 A 36.445 36.445 0 0 1 578.53 56.717 A 28.312 28.312 0 0 1 576.03 63.796 A 23.88 23.88 0 0 1 566.744 73.668 A 25.272 25.272 0 0 1 558.106 76.745 A 33.702 33.702 0 0 1 552.45 77.202 A 32.591 32.591 0 0 1 545.415 76.476 Z M 552.521 65.483 A 10.867 10.867 0 0 0 555.577 65.072 A 8.665 8.665 0 0 0 558.807 63.335 Q 561.328 61.186 562.624 57.457 A 22.804 22.804 0 0 0 563.672 52.937 A 30.402 30.402 0 0 0 563.92 48.97 A 29.894 29.894 0 0 0 563.606 44.536 A 22.48 22.48 0 0 0 562.624 40.483 A 15.694 15.694 0 0 0 561.198 37.425 A 11.908 11.908 0 0 0 558.807 34.588 Q 556.286 32.422 552.521 32.422 A 11.009 11.009 0 0 0 549.38 32.852 A 8.893 8.893 0 0 0 546.147 34.588 A 12.069 12.069 0 0 0 543.318 38.104 A 15.894 15.894 0 0 0 542.276 40.483 A 22.804 22.804 0 0 0 541.228 45.004 A 30.402 30.402 0 0 0 540.98 48.97 A 29.894 29.894 0 0 0 541.294 53.405 A 22.48 22.48 0 0 0 542.276 57.457 A 15.165 15.165 0 0 0 543.743 60.559 A 11.665 11.665 0 0 0 546.147 63.335 A 9.186 9.186 0 0 0 551 65.391 A 12.215 12.215 0 0 0 552.521 65.483 Z"
            id="9" />
        <path
            d="M 657.741 37.145 L 643.892 37.997 A 7.283 7.283 0 0 0 642.365 34.783 A 7.988 7.988 0 0 0 640.225 32.962 A 9.882 9.882 0 0 0 639.293 32.475 A 9.195 9.195 0 0 0 637.078 31.798 Q 636.003 31.605 634.766 31.605 A 13.963 13.963 0 0 0 632.091 31.848 Q 630.383 32.182 629.016 32.972 A 8.772 8.772 0 0 0 628.835 33.079 Q 626.42 34.553 626.42 37.003 A 4.149 4.149 0 0 0 627.748 40.091 A 5.521 5.521 0 0 0 627.983 40.305 A 6.266 6.266 0 0 0 629.178 41.097 Q 630.452 41.763 632.436 42.261 A 27.558 27.558 0 0 0 633.345 42.472 L 643.217 44.46 A 38.754 38.754 0 0 1 647.794 45.675 Q 650.093 46.451 651.914 47.461 A 16.136 16.136 0 0 1 655.078 49.716 Q 658.984 53.338 658.984 59.233 Q 658.984 64.595 655.842 68.644 Q 652.699 72.692 647.248 74.947 A 29.017 29.017 0 0 1 640.393 76.8 A 38.792 38.792 0 0 1 634.695 77.202 Q 623.864 77.202 617.454 72.674 A 17.436 17.436 0 0 1 610.037 60.939 A 21.386 21.386 0 0 1 609.943 60.334 L 624.822 59.553 A 8.48 8.48 0 0 0 625.822 62.211 A 7.29 7.29 0 0 0 628.089 64.577 A 9.78 9.78 0 0 0 631.228 65.915 Q 632.817 66.3 634.73 66.3 A 16.781 16.781 0 0 0 637.282 66.117 Q 638.66 65.905 639.791 65.446 A 8.417 8.417 0 0 0 641.14 64.755 A 6.362 6.362 0 0 0 642.452 63.673 A 4.296 4.296 0 0 0 643.608 60.76 A 4.159 4.159 0 0 0 642.197 57.647 A 5.508 5.508 0 0 0 641.868 57.369 Q 640.235 56.093 636.909 55.388 A 26.206 26.206 0 0 0 636.612 55.327 L 627.166 53.445 Q 621.837 52.379 618.332 50.27 A 15.397 15.397 0 0 1 615.288 47.905 A 13.358 13.358 0 0 1 611.462 39.371 A 17.973 17.973 0 0 1 611.399 37.855 Q 611.399 32.6 614.258 28.8 Q 617.116 25 622.319 22.94 Q 627.521 20.881 634.517 20.881 A 39.528 39.528 0 0 1 640.965 21.374 Q 646.849 22.348 650.799 25.249 A 16.823 16.823 0 0 1 657.674 36.678 A 21.331 21.331 0 0 1 657.741 37.145 Z"
            id="11" />
        <path
            d="M 699.68 39.205 L 699.68 38.992 A 8.646 8.646 0 0 0 699.431 36.853 A 5.933 5.933 0 0 0 697.567 33.771 Q 695.785 32.213 692.75 31.97 A 14.595 14.595 0 0 0 691.584 31.925 Q 688.505 31.925 686.375 32.944 A 7.811 7.811 0 0 0 685.085 33.718 A 8.942 8.942 0 0 0 682.885 36.022 A 8.154 8.154 0 0 0 681.889 38.21 L 667.898 37.074 A 19.52 19.52 0 0 1 670.736 30.242 A 18.601 18.601 0 0 1 672.088 28.462 A 19.578 19.578 0 0 1 678.087 23.794 A 23.955 23.955 0 0 1 680.167 22.852 A 26.952 26.952 0 0 1 686.058 21.285 A 36.902 36.902 0 0 1 691.655 20.881 A 35.191 35.191 0 0 1 700.112 21.881 A 33.021 33.021 0 0 1 700.373 21.946 A 23.982 23.982 0 0 1 705.674 23.965 A 21.273 21.273 0 0 1 707.795 25.249 Q 711.044 27.486 712.926 30.984 A 15.322 15.322 0 0 1 714.473 35.485 A 21.204 21.204 0 0 1 714.808 39.347 L 714.808 76.136 L 700.462 76.136 L 700.462 68.573 L 700.036 68.573 A 15.17 15.17 0 0 1 696.52 73.065 Q 694.318 75 691.229 76.083 A 18.559 18.559 0 0 1 687.676 76.928 Q 685.995 77.165 684.106 77.166 A 30.506 30.506 0 0 1 684.091 77.166 A 25.453 25.453 0 0 1 679.01 76.68 A 20.105 20.105 0 0 1 674.787 75.337 A 14.706 14.706 0 0 1 668.342 69.904 A 13.921 13.921 0 0 1 666.416 65.21 Q 666.007 63.346 665.982 61.191 A 24.347 24.347 0 0 1 665.98 60.902 Q 665.98 56.357 667.649 53.267 A 13.514 13.514 0 0 1 672.195 48.296 A 21.237 21.237 0 0 1 677.067 45.955 A 25.106 25.106 0 0 1 678.746 45.455 A 48.694 48.694 0 0 1 685.464 44.212 A 54.22 54.22 0 0 1 686.47 44.105 A 284.083 284.083 0 0 0 688.734 43.86 Q 691.957 43.497 694.141 43.164 A 20.405 20.405 0 0 0 695.652 42.879 Q 697.422 42.471 698.366 41.832 A 2.861 2.861 0 0 0 699.645 39.753 A 4.104 4.104 0 0 0 699.68 39.205 Z M 699.787 56.641 L 699.787 50.852 Q 699.077 51.314 697.852 51.687 A 24.549 24.549 0 0 1 696.551 52.042 A 32.891 32.891 0 0 1 695.099 52.362 A 68.688 68.688 0 0 1 692.045 52.894 A 404.532 404.532 0 0 1 690.589 53.112 A 296.738 296.738 0 0 1 689.276 53.303 Q 686.701 53.68 684.756 54.489 A 13.708 13.708 0 0 0 684.624 54.546 A 8.865 8.865 0 0 0 683.004 55.438 A 6.672 6.672 0 0 0 681.534 56.836 A 5.272 5.272 0 0 0 680.533 59.186 A 7.177 7.177 0 0 0 680.433 60.405 A 6.717 6.717 0 0 0 680.718 62.415 A 5.125 5.125 0 0 0 682.688 65.11 A 8.318 8.318 0 0 0 685.705 66.438 Q 686.955 66.726 688.423 66.726 A 14.237 14.237 0 0 0 691.566 66.393 A 11.337 11.337 0 0 0 694.318 65.394 A 10.657 10.657 0 0 0 697.313 63.118 A 9.932 9.932 0 0 0 698.331 61.79 A 9.263 9.263 0 0 0 699.781 56.998 A 11.148 11.148 0 0 0 699.787 56.641 Z"
            id="12" />
        <path
            d="M 745.028 76.136 L 729.936 76.136 L 729.936 17.649 C 729.936 14.352 730.475 11.524 731.554 9.165 C 731.765 8.702 732.002 8.251 732.262 7.813 C 733.813 5.208 735.937 3.255 738.636 1.953 C 740.556 1.039 742.612 0.444 744.723 0.191 C 745.755 0.062 746.794 -0.002 747.834 0 C 749.046 -0.003 750.258 0.05 751.465 0.159 C 752.384 0.242 753.3 0.367 754.208 0.533 C 754.66 0.616 755.112 0.702 755.563 0.792 C 756.431 0.966 757.169 1.131 757.776 1.286 C 758.026 1.35 758.275 1.418 758.523 1.492 L 755.824 12.855 C 755.371 12.71 754.838 12.572 754.225 12.441 C 754.03 12.4 753.835 12.36 753.64 12.323 C 752.768 12.156 751.882 12.073 750.994 12.074 C 750.45 12.071 749.906 12.107 749.367 12.183 C 747.994 12.384 746.986 12.862 746.342 13.619 C 745.882 14.171 745.543 14.813 745.347 15.504 C 745.201 15.993 745.105 16.528 745.059 17.11 C 745.038 17.384 745.028 17.658 745.028 17.933 L 745.028 76.136 Z M 755.85 32.443 L 722.23 32.955 L 722.062 21.04 L 755.895 21.591 L 755.85 32.443 Z"
            id="13" />
        <path
            d="M 815.021 48.58 L 815.021 52.734 L 768.963 52.734 L 768.963 43.359 L 800.781 43.359 A 12.786 12.786 0 0 0 800.38 40.099 A 10.632 10.632 0 0 0 799.361 37.571 A 10.336 10.336 0 0 0 795.437 33.612 A 10.789 10.789 0 0 0 791.425 32.287 A 13.765 13.765 0 0 0 789.631 32.173 A 12.776 12.776 0 0 0 786.196 32.619 A 10.788 10.788 0 0 0 783.54 33.754 Q 780.895 35.334 779.403 37.979 A 11.945 11.945 0 0 0 777.887 43.455 A 14.055 14.055 0 0 0 777.876 43.857 L 777.876 52.77 A 18.297 18.297 0 0 0 778.165 56.102 A 13.307 13.307 0 0 0 779.386 59.766 Q 780.895 62.713 783.665 64.311 A 11.761 11.761 0 0 0 787.636 65.703 A 15.723 15.723 0 0 0 790.234 65.909 A 15.57 15.57 0 0 0 793.043 65.665 A 12.82 12.82 0 0 0 794.851 65.199 A 9.883 9.883 0 0 0 797.551 63.811 A 9.083 9.083 0 0 0 798.437 63.068 A 9.177 9.177 0 0 0 800.584 59.906 A 10.7 10.7 0 0 0 800.71 59.588 L 814.702 60.511 Q 813.636 65.554 810.352 69.301 A 20.964 20.964 0 0 1 804.218 74.059 A 25.753 25.753 0 0 1 801.9 75.124 Q 796.733 77.202 789.986 77.202 A 34.708 34.708 0 0 1 783.074 76.546 A 25.561 25.561 0 0 1 775.515 73.775 A 23.18 23.18 0 0 1 766.193 64.045 A 28.395 28.395 0 0 1 763.486 55.86 A 38.817 38.817 0 0 1 762.926 49.112 A 36.718 36.718 0 0 1 763.693 41.442 A 28.437 28.437 0 0 1 766.193 34.34 A 24.113 24.113 0 0 1 775.408 24.432 A 24.904 24.904 0 0 1 784.569 21.228 A 32.334 32.334 0 0 1 789.382 20.881 A 29.892 29.892 0 0 1 796.765 21.771 A 26.852 26.852 0 0 1 799.45 22.603 Q 804.119 24.325 807.617 27.77 Q 811.115 31.215 813.068 36.417 A 29.336 29.336 0 0 1 814.563 42.249 Q 815.021 45.208 815.021 48.58 Z"
            id="14" />
        <path
            d="M 828.516 61.364 L 828.516 8.523 L 843.643 8.523 L 843.643 59.375 C 843.642 59.782 843.663 60.188 843.706 60.593 C 843.749 60.98 843.814 61.334 843.901 61.656 C 843.989 61.993 844.117 62.318 844.283 62.624 C 844.503 63.031 844.797 63.393 845.15 63.692 C 845.428 63.922 845.74 64.107 846.076 64.24 C 846.519 64.414 846.98 64.537 847.45 64.607 C 847.883 64.672 848.32 64.704 848.757 64.702 C 849.472 64.701 850.185 64.636 850.888 64.506 C 851.598 64.376 852.142 64.276 852.521 64.205 L 854.901 75.462 C 854.693 75.527 854.485 75.588 854.275 75.647 C 853.805 75.78 853.253 75.923 852.619 76.078 C 852.315 76.152 852.01 76.225 851.705 76.296 C 851.104 76.434 850.496 76.543 849.885 76.624 C 848.926 76.754 847.864 76.84 846.697 76.882 C 846.291 76.898 845.884 76.906 845.477 76.906 C 843.93 76.906 842.471 76.787 841.098 76.548 C 839.738 76.317 838.407 75.941 837.127 75.426 C 835.452 74.762 833.922 73.779 832.623 72.53 C 831.916 71.84 831.288 71.073 830.753 70.242 C 829.261 67.934 828.515 65.029 828.515 61.528 C 828.515 61.473 828.515 61.419 828.516 61.364 Z M 853.505 33.806 L 821.058 32.955 L 821.078 20.74 L 853.906 21.591 L 853.505 33.806 Z"
            id="15" />
        <path
            d="M 878.871 76.136 L 863.743 76.136 L 863.743 21.591 L 878.409 21.591 L 878.409 31.108 L 878.977 31.108 A 17.487 17.487 0 0 1 880.523 27.389 A 12.633 12.633 0 0 1 883.984 23.42 A 13.221 13.221 0 0 1 892.081 20.81 A 20.866 20.866 0 0 1 893.493 20.86 A 26.155 26.155 0 0 1 894.531 20.952 A 21.312 21.312 0 0 1 895.62 21.096 Q 896.156 21.183 896.626 21.291 A 12.133 12.133 0 0 1 896.839 21.342 L 896.839 34.766 Q 895.877 34.477 894.248 34.246 A 38.21 38.21 0 0 0 893.892 34.198 A 30.615 30.615 0 0 0 892.09 34.011 A 22.855 22.855 0 0 0 890.447 33.949 Q 887.109 33.949 884.499 35.387 Q 881.889 36.825 880.38 39.382 A 10.881 10.881 0 0 0 878.954 43.755 A 13.653 13.653 0 0 0 878.871 45.277 L 878.871 76.136 Z"
            id="16" />
        <path
            d="M 935.76 39.205 L 935.76 38.992 A 8.646 8.646 0 0 0 935.51 36.853 A 5.933 5.933 0 0 0 933.647 33.771 Q 931.864 32.213 928.83 31.97 A 14.595 14.595 0 0 0 927.663 31.925 Q 924.585 31.925 922.454 32.944 A 7.811 7.811 0 0 0 921.165 33.718 A 8.942 8.942 0 0 0 918.965 36.022 A 8.154 8.154 0 0 0 917.969 38.21 L 903.977 37.074 A 19.52 19.52 0 0 1 906.816 30.242 A 18.601 18.601 0 0 1 908.168 28.462 A 19.578 19.578 0 0 1 914.167 23.794 A 23.955 23.955 0 0 1 916.246 22.852 A 26.952 26.952 0 0 1 922.137 21.285 A 36.902 36.902 0 0 1 927.734 20.881 A 35.191 35.191 0 0 1 936.191 21.881 A 33.021 33.021 0 0 1 936.452 21.946 A 23.982 23.982 0 0 1 941.753 23.965 A 21.273 21.273 0 0 1 943.874 25.249 Q 947.124 27.486 949.006 30.984 A 15.322 15.322 0 0 1 950.553 35.485 A 21.204 21.204 0 0 1 950.888 39.347 L 950.888 76.136 L 936.541 76.136 L 936.541 68.573 L 936.115 68.573 A 15.17 15.17 0 0 1 932.599 73.065 Q 930.398 75 927.308 76.083 A 18.559 18.559 0 0 1 923.755 76.928 Q 922.075 77.165 920.185 77.166 A 30.506 30.506 0 0 1 920.17 77.166 A 25.453 25.453 0 0 1 915.089 76.68 A 20.105 20.105 0 0 1 910.866 75.337 A 14.706 14.706 0 0 1 904.421 69.904 A 13.921 13.921 0 0 1 902.496 65.21 Q 902.087 63.346 902.061 61.191 A 24.347 24.347 0 0 1 902.06 60.902 Q 902.06 56.357 903.729 53.267 A 13.514 13.514 0 0 1 908.274 48.296 A 21.237 21.237 0 0 1 913.147 45.955 A 25.106 25.106 0 0 1 914.826 45.455 A 48.694 48.694 0 0 1 921.543 44.212 A 54.22 54.22 0 0 1 922.55 44.105 A 284.083 284.083 0 0 0 924.814 43.86 Q 928.036 43.497 930.22 43.164 A 20.405 20.405 0 0 0 931.732 42.879 Q 933.502 42.471 934.446 41.832 A 2.861 2.861 0 0 0 935.725 39.753 A 4.104 4.104 0 0 0 935.76 39.205 Z M 935.866 56.641 L 935.866 50.852 Q 935.156 51.314 933.931 51.687 A 24.549 24.549 0 0 1 932.631 52.042 A 32.891 32.891 0 0 1 931.179 52.362 A 68.688 68.688 0 0 1 928.125 52.894 A 404.532 404.532 0 0 1 926.669 53.112 A 296.738 296.738 0 0 1 925.355 53.303 Q 922.78 53.68 920.836 54.489 A 13.708 13.708 0 0 0 920.703 54.546 A 8.865 8.865 0 0 0 919.083 55.438 A 6.672 6.672 0 0 0 917.614 56.836 A 5.272 5.272 0 0 0 916.612 59.186 A 7.177 7.177 0 0 0 916.513 60.405 A 6.717 6.717 0 0 0 916.798 62.415 A 5.125 5.125 0 0 0 918.768 65.11 A 8.318 8.318 0 0 0 921.785 66.438 Q 923.035 66.726 924.503 66.726 A 14.237 14.237 0 0 0 927.646 66.393 A 11.337 11.337 0 0 0 930.398 65.394 A 10.657 10.657 0 0 0 933.393 63.118 A 9.932 9.932 0 0 0 934.411 61.79 A 9.263 9.263 0 0 0 935.861 56.998 A 11.148 11.148 0 0 0 935.866 56.641 Z"
            id="17" />
        <path
            d="M 998.224 30.753 L 998.686 30.753 L 998.686 3.409 L 1013.778 3.409 L 1013.778 76.136 L 998.864 76.136 L 998.864 67.401 L 998.224 67.401 Q 997.159 69.673 995.224 71.893 A 14.029 14.029 0 0 1 992.194 74.477 A 17.743 17.743 0 0 1 990.217 75.568 Q 987.434 76.887 983.559 77.011 A 25.524 25.524 0 0 1 982.741 77.024 Q 976.527 77.024 971.502 73.81 A 20.354 20.354 0 0 1 965.583 67.948 A 26.594 26.594 0 0 1 963.548 64.329 A 29.072 29.072 0 0 1 961.445 57.825 Q 960.825 54.794 960.67 51.309 A 53.424 53.424 0 0 1 960.618 48.935 Q 960.618 39.56 963.636 33.327 A 25.398 25.398 0 0 1 966.784 28.321 A 19.607 19.607 0 0 1 971.68 23.988 A 20.561 20.561 0 0 1 982.706 20.881 A 22.6 22.6 0 0 1 985.929 21.098 Q 987.655 21.347 989.101 21.881 A 12.209 12.209 0 0 1 990.359 22.426 A 17.003 17.003 0 0 1 993.292 24.277 A 13.655 13.655 0 0 1 995.33 26.261 A 23.751 23.751 0 0 1 996.912 28.389 Q 997.696 29.583 998.224 30.753 Z M 987.536 64.986 A 11.087 11.087 0 0 0 990.621 64.574 A 8.988 8.988 0 0 0 993.732 62.979 A 11.439 11.439 0 0 0 996.448 59.84 A 15.454 15.454 0 0 0 997.638 57.351 Q 999.006 53.729 999.006 48.864 A 29.565 29.565 0 0 0 998.747 44.851 Q 998.457 42.732 997.839 40.923 A 17.494 17.494 0 0 0 997.656 40.412 A 14.389 14.389 0 0 0 996.215 37.542 A 10.826 10.826 0 0 0 993.75 34.872 Q 991.193 32.919 987.536 32.919 A 11.376 11.376 0 0 0 984.447 33.321 A 9.034 9.034 0 0 0 981.25 34.943 A 11.426 11.426 0 0 0 978.375 38.369 A 15.077 15.077 0 0 0 977.379 40.554 Q 976.07 44.128 976.065 48.829 A 33.95 33.95 0 0 0 976.065 48.864 A 28.916 28.916 0 0 0 976.358 53.079 A 21.112 21.112 0 0 0 977.397 57.262 Q 978.729 60.902 981.268 62.944 A 9.177 9.177 0 0 0 985.853 64.874 A 12.239 12.239 0 0 0 987.536 64.986 Z"
            id="18" />
        <path
            d="M 1076.065 48.58 L 1076.065 52.734 L 1030.007 52.734 L 1030.007 43.359 L 1061.825 43.359 A 12.786 12.786 0 0 0 1061.424 40.099 A 10.632 10.632 0 0 0 1060.405 37.571 A 10.336 10.336 0 0 0 1056.481 33.612 A 10.789 10.789 0 0 0 1052.469 32.287 A 13.765 13.765 0 0 0 1050.675 32.173 A 12.776 12.776 0 0 0 1047.24 32.619 A 10.788 10.788 0 0 0 1044.585 33.754 Q 1041.939 35.334 1040.447 37.979 A 11.945 11.945 0 0 0 1038.931 43.455 A 14.055 14.055 0 0 0 1038.92 43.857 L 1038.92 52.77 A 18.297 18.297 0 0 0 1039.209 56.102 A 13.307 13.307 0 0 0 1040.43 59.766 Q 1041.939 62.713 1044.709 64.311 A 11.761 11.761 0 0 0 1048.68 65.703 A 15.723 15.723 0 0 0 1051.278 65.909 A 15.57 15.57 0 0 0 1054.087 65.665 A 12.82 12.82 0 0 0 1055.895 65.199 A 9.883 9.883 0 0 0 1058.595 63.811 A 9.083 9.083 0 0 0 1059.482 63.068 A 9.177 9.177 0 0 0 1061.628 59.906 A 10.7 10.7 0 0 0 1061.754 59.588 L 1075.746 60.511 Q 1074.68 65.554 1071.396 69.301 A 20.964 20.964 0 0 1 1065.262 74.059 A 25.753 25.753 0 0 1 1062.944 75.124 Q 1057.777 77.202 1051.03 77.202 A 34.708 34.708 0 0 1 1044.118 76.546 A 25.561 25.561 0 0 1 1036.559 73.775 A 23.18 23.18 0 0 1 1027.237 64.045 A 28.395 28.395 0 0 1 1024.53 55.86 A 38.817 38.817 0 0 1 1023.97 49.112 A 36.718 36.718 0 0 1 1024.737 41.442 A 28.437 28.437 0 0 1 1027.237 34.34 A 24.113 24.113 0 0 1 1036.452 24.432 A 24.904 24.904 0 0 1 1045.613 21.228 A 32.334 32.334 0 0 1 1050.426 20.881 A 29.892 29.892 0 0 1 1057.809 21.771 A 26.852 26.852 0 0 1 1060.494 22.603 Q 1065.163 24.325 1068.661 27.77 Q 1072.159 31.215 1074.112 36.417 A 29.336 29.336 0 0 1 1075.607 42.249 Q 1076.065 45.208 1076.065 48.58 Z"
            id="19" />
        <path
            d="M 1088.21 3.409 L 1104.013 3.409 L 1102.628 54.332 L 1089.631 54.332 L 1088.21 3.409 Z M 1096.129 77.06 Q 1092.614 77.06 1090.092 74.556 A 8.242 8.242 0 0 1 1088.016 71.278 Q 1087.606 70.037 1087.606 68.634 A 9.649 9.649 0 0 1 1087.607 68.537 A 9.456 9.456 0 0 1 1087.606 68.441 Q 1087.606 65.082 1090.006 62.658 A 9.937 9.937 0 0 1 1090.092 62.571 A 8.291 8.291 0 0 1 1096.074 60.085 A 9.919 9.919 0 0 1 1096.129 60.085 A 8.219 8.219 0 0 1 1101.939 62.456 A 10.695 10.695 0 0 1 1102.06 62.571 A 8.481 8.481 0 0 1 1104.102 65.587 A 8.305 8.305 0 0 1 1104.652 68.537 A 8.259 8.259 0 0 1 1103.427 72.816 A 9.128 9.128 0 0 1 1100.32 75.906 A 7.976 7.976 0 0 1 1096.129 77.06 Z"
            id="20" />
    </g>
</svg>